<mxfile host="app.diagrams.net" modified="2024-05-19T13:39:52.783Z" agent="Mozilla/5.0 (Windows NT 10.0; Win64; x64) AppleWebKit/537.36 (KHTML, like Gecko) Chrome/124.0.0.0 Safari/537.36" etag="aqR2xWwaFJ59nCG9ErEc" version="24.4.4" type="device">
  <diagram name="Page-1" id="xRYIyotb8lbg_Fzp4E38">
    <mxGraphModel dx="2320" dy="924" grid="1" gridSize="10" guides="1" tooltips="1" connect="1" arrows="1" fold="1" page="0" pageScale="1" pageWidth="827" pageHeight="1169" math="0" shadow="0">
      <root>
        <mxCell id="0" />
        <mxCell id="1" parent="0" />
        <mxCell id="Du0yvdXYlzZmZNrRCehT-1" value="&lt;font style=&quot;font-size: 6px;&quot;&gt;Robot Control Unit&lt;/font&gt;" style="html=1;dropTarget=0;whiteSpace=wrap;strokeColor=#0000CC;fillColor=#F2FAFF;" parent="1" vertex="1">
          <mxGeometry x="370" y="340" width="350" height="150" as="geometry" />
        </mxCell>
        <mxCell id="Du0yvdXYlzZmZNrRCehT-2" value="" style="shape=module;jettyWidth=8;jettyHeight=4;" parent="Du0yvdXYlzZmZNrRCehT-1" vertex="1">
          <mxGeometry x="1" width="20" height="20" relative="1" as="geometry">
            <mxPoint x="-27" y="7" as="offset" />
          </mxGeometry>
        </mxCell>
        <mxCell id="Du0yvdXYlzZmZNrRCehT-3" value="" style="shape=folder;fontStyle=1;tabWidth=130;tabHeight=30;tabPosition=left;html=1;boundedLbl=1;whiteSpace=wrap;fillColor=#F5E0FF;strokeColor=#330066;" parent="1" vertex="1">
          <mxGeometry x="179" y="30" width="640" height="120" as="geometry" />
        </mxCell>
        <mxCell id="Du0yvdXYlzZmZNrRCehT-4" value="&lt;font style=&quot;font-size: 6px;&quot;&gt;The Initial 3D Mapping&lt;/font&gt;" style="html=1;dropTarget=0;whiteSpace=wrap;strokeColor=#0000CC;fillColor=#F2FAFF;" parent="1" vertex="1">
          <mxGeometry x="190" y="70" width="120" height="30" as="geometry" />
        </mxCell>
        <mxCell id="Du0yvdXYlzZmZNrRCehT-5" value="" style="shape=module;jettyWidth=8;jettyHeight=4;" parent="Du0yvdXYlzZmZNrRCehT-4" vertex="1">
          <mxGeometry x="1" width="20" height="20" relative="1" as="geometry">
            <mxPoint x="-27" y="7" as="offset" />
          </mxGeometry>
        </mxCell>
        <mxCell id="Du0yvdXYlzZmZNrRCehT-6" value="&lt;span style=&quot;font-weight: 700;&quot;&gt;3D Mapping&lt;/span&gt;" style="text;html=1;align=center;verticalAlign=middle;whiteSpace=wrap;rounded=0;" parent="1" vertex="1">
          <mxGeometry x="210" y="30" width="80" height="30" as="geometry" />
        </mxCell>
        <mxCell id="Du0yvdXYlzZmZNrRCehT-7" value="&lt;font style=&quot;font-size: 6px;&quot;&gt;Image Processing&lt;/font&gt;" style="html=1;dropTarget=0;whiteSpace=wrap;strokeColor=#0000CC;fillColor=#F2FAFF;" parent="1" vertex="1">
          <mxGeometry x="190" y="110" width="120" height="30" as="geometry" />
        </mxCell>
        <mxCell id="Du0yvdXYlzZmZNrRCehT-8" value="" style="shape=module;jettyWidth=8;jettyHeight=4;" parent="Du0yvdXYlzZmZNrRCehT-7" vertex="1">
          <mxGeometry x="1" width="20" height="20" relative="1" as="geometry">
            <mxPoint x="-27" y="7" as="offset" />
          </mxGeometry>
        </mxCell>
        <mxCell id="Du0yvdXYlzZmZNrRCehT-9" value="&lt;font style=&quot;font-size: 6px;&quot;&gt;Evaluting the Surrounding Environment&lt;/font&gt;" style="html=1;dropTarget=0;whiteSpace=wrap;strokeColor=#0000CC;fillColor=#F2FAFF;" parent="1" vertex="1">
          <mxGeometry x="390" y="90" width="171" height="30" as="geometry" />
        </mxCell>
        <mxCell id="Du0yvdXYlzZmZNrRCehT-10" value="" style="shape=module;jettyWidth=8;jettyHeight=4;" parent="Du0yvdXYlzZmZNrRCehT-9" vertex="1">
          <mxGeometry x="1" width="20" height="20" relative="1" as="geometry">
            <mxPoint x="-27" y="7" as="offset" />
          </mxGeometry>
        </mxCell>
        <mxCell id="Du0yvdXYlzZmZNrRCehT-11" value="" style="shape=providedRequiredInterface;html=1;verticalLabelPosition=bottom;sketch=0;strokeColor=#00FF00;fillColor=#00FF00;" parent="1" vertex="1">
          <mxGeometry x="350" y="95" width="20" height="20" as="geometry" />
        </mxCell>
        <mxCell id="Du0yvdXYlzZmZNrRCehT-22" value="&lt;font style=&quot;font-size: 6px;&quot;&gt;Path_Planning&amp;nbsp; and Plan the Optimal Route Algorithms&lt;/font&gt;" style="html=1;dropTarget=0;whiteSpace=wrap;strokeColor=#0000CC;fillColor=#F2FAFF;" parent="1" vertex="1">
          <mxGeometry x="614" y="80" width="200" height="50" as="geometry" />
        </mxCell>
        <mxCell id="Du0yvdXYlzZmZNrRCehT-23" value="" style="shape=module;jettyWidth=8;jettyHeight=4;" parent="Du0yvdXYlzZmZNrRCehT-22" vertex="1">
          <mxGeometry x="1" width="20" height="20" relative="1" as="geometry">
            <mxPoint x="-27" y="7" as="offset" />
          </mxGeometry>
        </mxCell>
        <mxCell id="Du0yvdXYlzZmZNrRCehT-26" value="" style="ellipse;whiteSpace=wrap;html=1;align=center;aspect=fixed;fillColor=none;strokeColor=none;resizable=0;perimeter=centerPerimeter;rotatable=0;allowArrows=0;points=[];outlineConnect=1;" parent="1" vertex="1">
          <mxGeometry x="440" y="130" width="10" height="10" as="geometry" />
        </mxCell>
        <mxCell id="Du0yvdXYlzZmZNrRCehT-27" value="" style="endArrow=none;html=1;rounded=0;exitX=1;exitY=0.5;exitDx=0;exitDy=0;exitPerimeter=0;entryX=0;entryY=0.5;entryDx=0;entryDy=0;strokeColor=#00FF00;" parent="1" source="Du0yvdXYlzZmZNrRCehT-11" target="Du0yvdXYlzZmZNrRCehT-9" edge="1">
          <mxGeometry width="50" height="50" relative="1" as="geometry">
            <mxPoint x="360" y="180" as="sourcePoint" />
            <mxPoint x="410" y="130" as="targetPoint" />
          </mxGeometry>
        </mxCell>
        <mxCell id="Du0yvdXYlzZmZNrRCehT-30" value="" style="endArrow=none;html=1;rounded=0;exitX=1;exitY=0.5;exitDx=0;exitDy=0;strokeColor=#00FF00;" parent="1" edge="1">
          <mxGeometry width="50" height="50" relative="1" as="geometry">
            <mxPoint x="310" y="120" as="sourcePoint" />
            <mxPoint x="350" y="105" as="targetPoint" />
          </mxGeometry>
        </mxCell>
        <mxCell id="Du0yvdXYlzZmZNrRCehT-31" value="" style="endArrow=none;html=1;rounded=0;exitX=1;exitY=0.5;exitDx=0;exitDy=0;strokeColor=#00FF00;" parent="1" edge="1">
          <mxGeometry width="50" height="50" relative="1" as="geometry">
            <mxPoint x="310" y="80" as="sourcePoint" />
            <mxPoint x="350" y="105" as="targetPoint" />
          </mxGeometry>
        </mxCell>
        <mxCell id="Du0yvdXYlzZmZNrRCehT-34" value="&lt;font style=&quot;font-size: 6px;&quot;&gt;Stored Data&lt;/font&gt;" style="text;html=1;align=center;verticalAlign=middle;whiteSpace=wrap;rounded=0;" parent="1" vertex="1">
          <mxGeometry x="315" y="70" width="40" height="15" as="geometry" />
        </mxCell>
        <mxCell id="Du0yvdXYlzZmZNrRCehT-35" value="&lt;font style=&quot;font-size: 6px;&quot;&gt;Processed Data&lt;/font&gt;" style="text;html=1;align=center;verticalAlign=middle;whiteSpace=wrap;rounded=0;" parent="1" vertex="1">
          <mxGeometry x="311" y="118" width="50" height="20" as="geometry" />
        </mxCell>
        <mxCell id="Du0yvdXYlzZmZNrRCehT-36" value="&lt;font style=&quot;font-size: 6px;&quot;&gt;Updating 3D Map&lt;/font&gt;" style="text;html=1;align=center;verticalAlign=middle;whiteSpace=wrap;rounded=0;" parent="1" vertex="1">
          <mxGeometry x="564" y="75" width="50" height="20" as="geometry" />
        </mxCell>
        <mxCell id="Du0yvdXYlzZmZNrRCehT-39" value="&lt;font style=&quot;font-size: 6px;&quot;&gt;Cameras&lt;/font&gt;" style="html=1;dropTarget=0;whiteSpace=wrap;strokeColor=#00994D;fillColor=#DAE8DD;" parent="1" vertex="1">
          <mxGeometry x="212" y="219" width="94" height="40" as="geometry" />
        </mxCell>
        <mxCell id="Du0yvdXYlzZmZNrRCehT-40" value="" style="shape=module;jettyWidth=8;jettyHeight=4;" parent="Du0yvdXYlzZmZNrRCehT-39" vertex="1">
          <mxGeometry x="1" width="20" height="20" relative="1" as="geometry">
            <mxPoint x="-27" y="7" as="offset" />
          </mxGeometry>
        </mxCell>
        <mxCell id="Du0yvdXYlzZmZNrRCehT-43" value="&lt;font style=&quot;font-size: 6px;&quot;&gt;Microphones&lt;/font&gt;" style="html=1;dropTarget=0;whiteSpace=wrap;strokeColor=#00994D;fillColor=#DAE8DD;" parent="1" vertex="1">
          <mxGeometry x="65.75" y="490" width="99.5" height="40" as="geometry" />
        </mxCell>
        <mxCell id="Du0yvdXYlzZmZNrRCehT-44" value="" style="shape=module;jettyWidth=8;jettyHeight=4;" parent="Du0yvdXYlzZmZNrRCehT-43" vertex="1">
          <mxGeometry x="1" width="20" height="20" relative="1" as="geometry">
            <mxPoint x="-27" y="7" as="offset" />
          </mxGeometry>
        </mxCell>
        <mxCell id="Du0yvdXYlzZmZNrRCehT-45" value="&lt;font style=&quot;font-size: 6px;&quot;&gt;Dynamic Unit&lt;/font&gt;" style="html=1;dropTarget=0;whiteSpace=wrap;strokeColor=#0000CC;fillColor=#F2FAFF;" parent="1" vertex="1">
          <mxGeometry x="502" y="214.5" width="110" height="35" as="geometry" />
        </mxCell>
        <mxCell id="Du0yvdXYlzZmZNrRCehT-46" value="" style="shape=module;jettyWidth=8;jettyHeight=4;" parent="Du0yvdXYlzZmZNrRCehT-45" vertex="1">
          <mxGeometry x="1" width="20" height="20" relative="1" as="geometry">
            <mxPoint x="-27" y="7" as="offset" />
          </mxGeometry>
        </mxCell>
        <mxCell id="Du0yvdXYlzZmZNrRCehT-57" value="" style="shape=providedRequiredInterface;html=1;verticalLabelPosition=bottom;sketch=0;rotation=-90;strokeColor=#00FF00;fillColor=#00FF00;" parent="1" vertex="1">
          <mxGeometry x="272.5" y="189" width="20" height="20" as="geometry" />
        </mxCell>
        <mxCell id="Du0yvdXYlzZmZNrRCehT-58" value="" style="endArrow=none;html=1;rounded=0;exitX=0.75;exitY=0;exitDx=0;exitDy=0;entryX=0;entryY=0.5;entryDx=0;entryDy=0;entryPerimeter=0;strokeColor=#00FF00;" parent="1" source="Du0yvdXYlzZmZNrRCehT-39" target="Du0yvdXYlzZmZNrRCehT-57" edge="1">
          <mxGeometry width="50" height="50" relative="1" as="geometry">
            <mxPoint x="220" y="270" as="sourcePoint" />
            <mxPoint x="270" y="220" as="targetPoint" />
          </mxGeometry>
        </mxCell>
        <mxCell id="Du0yvdXYlzZmZNrRCehT-61" value="" style="endArrow=none;html=1;rounded=0;exitX=1;exitY=0.5;exitDx=0;exitDy=0;exitPerimeter=0;entryX=0.25;entryY=1;entryDx=0;entryDy=0;entryPerimeter=0;strokeColor=#00FF00;edgeStyle=orthogonalEdgeStyle;fillColor=#00FF00;" parent="1" source="Du0yvdXYlzZmZNrRCehT-57" target="Du0yvdXYlzZmZNrRCehT-3" edge="1">
          <mxGeometry width="50" height="50" relative="1" as="geometry">
            <mxPoint x="270" y="240" as="sourcePoint" />
            <mxPoint x="320" y="190" as="targetPoint" />
          </mxGeometry>
        </mxCell>
        <mxCell id="Du0yvdXYlzZmZNrRCehT-62" value="" style="shape=providedRequiredInterface;html=1;verticalLabelPosition=bottom;sketch=0;rotation=90;" parent="1" vertex="1">
          <mxGeometry x="561.75" y="271.5" width="20" height="20" as="geometry" />
        </mxCell>
        <mxCell id="Du0yvdXYlzZmZNrRCehT-63" value="" style="endArrow=none;html=1;rounded=0;entryX=0;entryY=0.5;entryDx=0;entryDy=0;entryPerimeter=0;strokeColor=#000000;exitX=0.75;exitY=1;exitDx=0;exitDy=0;edgeStyle=orthogonalEdgeStyle;" parent="1" source="Du0yvdXYlzZmZNrRCehT-45" target="Du0yvdXYlzZmZNrRCehT-62" edge="1">
          <mxGeometry width="50" height="50" relative="1" as="geometry">
            <mxPoint x="550" y="230" as="sourcePoint" />
            <mxPoint x="235" y="240" as="targetPoint" />
          </mxGeometry>
        </mxCell>
        <mxCell id="Du0yvdXYlzZmZNrRCehT-64" value="" style="endArrow=none;html=1;rounded=0;entryX=1;entryY=0.5;entryDx=0;entryDy=0;entryPerimeter=0;strokeColor=#000000;exitX=0.577;exitY=0.002;exitDx=0;exitDy=0;exitPerimeter=0;" parent="1" source="Du0yvdXYlzZmZNrRCehT-1" target="Du0yvdXYlzZmZNrRCehT-62" edge="1">
          <mxGeometry width="50" height="50" relative="1" as="geometry">
            <mxPoint x="500" y="290" as="sourcePoint" />
            <mxPoint x="245" y="250" as="targetPoint" />
          </mxGeometry>
        </mxCell>
        <mxCell id="Du0yvdXYlzZmZNrRCehT-67" value="" style="ellipse;whiteSpace=wrap;html=1;align=center;aspect=fixed;fillColor=none;strokeColor=none;resizable=0;perimeter=centerPerimeter;rotatable=0;allowArrows=0;points=[];outlineConnect=1;" parent="1" vertex="1">
          <mxGeometry x="350" y="150" width="10" height="10" as="geometry" />
        </mxCell>
        <mxCell id="Du0yvdXYlzZmZNrRCehT-72" value="" style="ellipse;whiteSpace=wrap;html=1;align=center;aspect=fixed;fillColor=none;strokeColor=none;resizable=0;perimeter=centerPerimeter;rotatable=0;allowArrows=0;points=[];outlineConnect=1;" parent="1" vertex="1">
          <mxGeometry x="665" y="280" width="10" height="10" as="geometry" />
        </mxCell>
        <mxCell id="Du0yvdXYlzZmZNrRCehT-74" value="" style="shape=providedRequiredInterface;html=1;verticalLabelPosition=bottom;sketch=0;rotation=-90;" parent="1" vertex="1">
          <mxGeometry x="534.75" y="271" width="20" height="20" as="geometry" />
        </mxCell>
        <mxCell id="Du0yvdXYlzZmZNrRCehT-75" value="" style="endArrow=none;html=1;rounded=0;entryX=0;entryY=0.5;entryDx=0;entryDy=0;entryPerimeter=0;exitX=0.5;exitY=0;exitDx=0;exitDy=0;strokeColor=#000000;" parent="1" source="Du0yvdXYlzZmZNrRCehT-1" target="Du0yvdXYlzZmZNrRCehT-74" edge="1">
          <mxGeometry width="50" height="50" relative="1" as="geometry">
            <mxPoint x="630" y="340" as="sourcePoint" />
            <mxPoint x="650" y="290" as="targetPoint" />
          </mxGeometry>
        </mxCell>
        <mxCell id="Du0yvdXYlzZmZNrRCehT-77" value="&lt;font style=&quot;font-size: 6px;&quot;&gt;Handling DU&lt;/font&gt;" style="edgeLabel;html=1;align=center;verticalAlign=middle;resizable=0;points=[];" parent="Du0yvdXYlzZmZNrRCehT-75" vertex="1" connectable="0">
          <mxGeometry x="0.208" y="1" relative="1" as="geometry">
            <mxPoint x="16" y="1" as="offset" />
          </mxGeometry>
        </mxCell>
        <mxCell id="Du0yvdXYlzZmZNrRCehT-76" value="" style="endArrow=none;html=1;rounded=0;entryX=0.25;entryY=1;entryDx=0;entryDy=0;exitX=1;exitY=0.5;exitDx=0;exitDy=0;exitPerimeter=0;strokeColor=#000000;edgeStyle=orthogonalEdgeStyle;" parent="1" source="Du0yvdXYlzZmZNrRCehT-74" target="Du0yvdXYlzZmZNrRCehT-45" edge="1">
          <mxGeometry width="50" height="50" relative="1" as="geometry">
            <mxPoint x="600" y="280" as="sourcePoint" />
            <mxPoint x="650" y="230" as="targetPoint" />
          </mxGeometry>
        </mxCell>
        <mxCell id="Du0yvdXYlzZmZNrRCehT-81" value="" style="shape=folder;fontStyle=1;spacingTop=10;tabWidth=110;tabHeight=30;tabPosition=left;html=1;whiteSpace=wrap;movable=1;resizable=1;rotatable=1;deletable=1;editable=1;locked=0;connectable=1;strokeColor=#FF8000;fillColor=#FFF4E0;" parent="1" vertex="1">
          <mxGeometry x="182" y="514" width="600" height="266" as="geometry" />
        </mxCell>
        <mxCell id="Du0yvdXYlzZmZNrRCehT-82" value="&lt;b&gt;Meal Proparation&lt;/b&gt;" style="text;html=1;align=center;verticalAlign=middle;whiteSpace=wrap;rounded=0;movable=1;resizable=1;rotatable=1;deletable=1;editable=1;locked=0;connectable=1;" parent="1" vertex="1">
          <mxGeometry x="178" y="510" width="120" height="30" as="geometry" />
        </mxCell>
        <mxCell id="Du0yvdXYlzZmZNrRCehT-86" value="" style="shape=folder;fontStyle=1;spacingTop=10;tabWidth=95;tabHeight=20;tabPosition=left;html=1;whiteSpace=wrap;" parent="1" vertex="1">
          <mxGeometry x="199" y="559" width="267.5" height="168" as="geometry" />
        </mxCell>
        <mxCell id="Du0yvdXYlzZmZNrRCehT-85" value="Vocal Instruction" style="text;html=1;align=center;verticalAlign=middle;whiteSpace=wrap;rounded=0;" parent="1" vertex="1">
          <mxGeometry x="197" y="559" width="100" height="20" as="geometry" />
        </mxCell>
        <mxCell id="Du0yvdXYlzZmZNrRCehT-94" value="&lt;span style=&quot;font-size: 6px;&quot;&gt;Voice Processing&lt;/span&gt;" style="html=1;dropTarget=0;whiteSpace=wrap;strokeColor=#0000CC;fillColor=#F2FAFF;" parent="1" vertex="1">
          <mxGeometry x="332" y="621" width="125" height="36" as="geometry" />
        </mxCell>
        <mxCell id="Du0yvdXYlzZmZNrRCehT-95" value="" style="shape=module;jettyWidth=8;jettyHeight=4;" parent="Du0yvdXYlzZmZNrRCehT-94" vertex="1">
          <mxGeometry x="1" width="20" height="20" relative="1" as="geometry">
            <mxPoint x="-27" y="7" as="offset" />
          </mxGeometry>
        </mxCell>
        <mxCell id="Du0yvdXYlzZmZNrRCehT-96" value="&lt;font style=&quot;font-size: 6px;&quot;&gt;Image Processing&lt;/font&gt;" style="html=1;dropTarget=0;whiteSpace=wrap;strokeColor=#0000CC;fillColor=#F2FAFF;" parent="1" vertex="1">
          <mxGeometry x="205" y="587" width="121" height="30" as="geometry" />
        </mxCell>
        <mxCell id="Du0yvdXYlzZmZNrRCehT-97" value="" style="shape=module;jettyWidth=8;jettyHeight=4;" parent="Du0yvdXYlzZmZNrRCehT-96" vertex="1">
          <mxGeometry x="1" width="20" height="20" relative="1" as="geometry">
            <mxPoint x="-27" y="7" as="offset" />
          </mxGeometry>
        </mxCell>
        <mxCell id="Du0yvdXYlzZmZNrRCehT-98" value="&lt;span style=&quot;font-size: 6px;&quot;&gt;Data Processing&lt;/span&gt;" style="html=1;dropTarget=0;whiteSpace=wrap;strokeColor=#0000CC;fillColor=#F2FAFF;" parent="1" vertex="1">
          <mxGeometry x="204" y="682.75" width="128" height="32.5" as="geometry" />
        </mxCell>
        <mxCell id="Du0yvdXYlzZmZNrRCehT-99" value="" style="shape=module;jettyWidth=8;jettyHeight=4;" parent="Du0yvdXYlzZmZNrRCehT-98" vertex="1">
          <mxGeometry x="1" width="20" height="20" relative="1" as="geometry">
            <mxPoint x="-27" y="7" as="offset" />
          </mxGeometry>
        </mxCell>
        <mxCell id="Du0yvdXYlzZmZNrRCehT-101" value="" style="shape=providedRequiredInterface;html=1;verticalLabelPosition=bottom;sketch=0;rotation=90;strokeColor=#00FF00;fillColor=#00FF00;" parent="1" vertex="1">
          <mxGeometry x="258" y="651" width="20" height="20" as="geometry" />
        </mxCell>
        <mxCell id="Du0yvdXYlzZmZNrRCehT-103" value="" style="endArrow=none;html=1;rounded=0;exitX=0;exitY=0.5;exitDx=0;exitDy=0;exitPerimeter=0;entryX=0;entryY=0.5;entryDx=0;entryDy=0;edgeStyle=orthogonalEdgeStyle;strokeColor=#00FF00;fillColor=#00FF00;" parent="1" source="Du0yvdXYlzZmZNrRCehT-101" target="Du0yvdXYlzZmZNrRCehT-94" edge="1">
          <mxGeometry width="50" height="50" relative="1" as="geometry">
            <mxPoint x="472" y="704" as="sourcePoint" />
            <mxPoint x="522" y="654" as="targetPoint" />
          </mxGeometry>
        </mxCell>
        <mxCell id="D1QgeajsOSIsV9LwH4yA-21" value="&lt;font style=&quot;font-size: 6px;&quot;&gt;Text&lt;/font&gt;" style="edgeLabel;html=1;align=center;verticalAlign=middle;resizable=0;points=[];" parent="Du0yvdXYlzZmZNrRCehT-103" vertex="1" connectable="0">
          <mxGeometry x="-0.0234" y="-5" relative="1" as="geometry">
            <mxPoint x="9" y="4" as="offset" />
          </mxGeometry>
        </mxCell>
        <mxCell id="Du0yvdXYlzZmZNrRCehT-104" value="" style="endArrow=none;html=1;rounded=0;entryX=0.5;entryY=1;entryDx=0;entryDy=0;exitX=0;exitY=0.5;exitDx=0;exitDy=0;exitPerimeter=0;edgeStyle=orthogonalEdgeStyle;strokeColor=#00FF00;fillColor=#00FF00;" parent="1" source="Du0yvdXYlzZmZNrRCehT-101" target="Du0yvdXYlzZmZNrRCehT-96" edge="1">
          <mxGeometry width="50" height="50" relative="1" as="geometry">
            <mxPoint x="432" y="734" as="sourcePoint" />
            <mxPoint x="482" y="684" as="targetPoint" />
          </mxGeometry>
        </mxCell>
        <mxCell id="D1QgeajsOSIsV9LwH4yA-20" value="&lt;font style=&quot;font-size: 6px;&quot;&gt;Gesture&lt;/font&gt;" style="edgeLabel;html=1;align=center;verticalAlign=middle;resizable=0;points=[];" parent="Du0yvdXYlzZmZNrRCehT-104" vertex="1" connectable="0">
          <mxGeometry x="-0.1724" y="1" relative="1" as="geometry">
            <mxPoint x="-20" y="-5" as="offset" />
          </mxGeometry>
        </mxCell>
        <mxCell id="Du0yvdXYlzZmZNrRCehT-105" value="" style="endArrow=none;html=1;rounded=0;entryX=0.5;entryY=0;entryDx=0;entryDy=0;exitX=1;exitY=0.5;exitDx=0;exitDy=0;exitPerimeter=0;strokeColor=#00FF00;" parent="1" source="Du0yvdXYlzZmZNrRCehT-101" target="Du0yvdXYlzZmZNrRCehT-98" edge="1">
          <mxGeometry width="50" height="50" relative="1" as="geometry">
            <mxPoint x="526" y="684" as="sourcePoint" />
            <mxPoint x="492" y="663" as="targetPoint" />
          </mxGeometry>
        </mxCell>
        <mxCell id="Du0yvdXYlzZmZNrRCehT-109" value="&lt;font style=&quot;font-size: 6px;&quot;&gt;Preparing &amp;amp; Cooking&lt;/font&gt;" style="html=1;dropTarget=0;whiteSpace=wrap;strokeColor=#0000CC;fillColor=#F2FAFF;" parent="1" vertex="1">
          <mxGeometry x="631.5" y="715.25" width="126" height="52" as="geometry" />
        </mxCell>
        <mxCell id="Du0yvdXYlzZmZNrRCehT-110" value="" style="shape=module;jettyWidth=8;jettyHeight=4;" parent="Du0yvdXYlzZmZNrRCehT-109" vertex="1">
          <mxGeometry x="1" width="20" height="20" relative="1" as="geometry">
            <mxPoint x="-27" y="7" as="offset" />
          </mxGeometry>
        </mxCell>
        <mxCell id="Du0yvdXYlzZmZNrRCehT-111" value="" style="shape=providedRequiredInterface;html=1;verticalLabelPosition=bottom;sketch=0;rotation=90;strokeColor=#00FF00;fillColor=#00FF00;" parent="1" vertex="1">
          <mxGeometry x="258" y="735" width="20" height="20" as="geometry" />
        </mxCell>
        <mxCell id="Du0yvdXYlzZmZNrRCehT-112" value="" style="endArrow=none;html=1;rounded=0;exitX=0.5;exitY=1;exitDx=0;exitDy=0;entryX=0;entryY=0.5;entryDx=0;entryDy=0;entryPerimeter=0;strokeColor=#00FF00;" parent="1" source="Du0yvdXYlzZmZNrRCehT-98" target="Du0yvdXYlzZmZNrRCehT-111" edge="1">
          <mxGeometry width="50" height="50" relative="1" as="geometry">
            <mxPoint x="410" y="834" as="sourcePoint" />
            <mxPoint x="439" y="814" as="targetPoint" />
          </mxGeometry>
        </mxCell>
        <mxCell id="Du0yvdXYlzZmZNrRCehT-183" value="&lt;font style=&quot;font-size: 6px;&quot;&gt;Structure&lt;/font&gt;" style="edgeLabel;html=1;align=center;verticalAlign=middle;resizable=0;points=[];" parent="Du0yvdXYlzZmZNrRCehT-112" vertex="1" connectable="0">
          <mxGeometry x="0.2022" relative="1" as="geometry">
            <mxPoint x="64" y="30" as="offset" />
          </mxGeometry>
        </mxCell>
        <mxCell id="Du0yvdXYlzZmZNrRCehT-113" value="" style="endArrow=none;html=1;rounded=0;entryX=1;entryY=0.5;entryDx=0;entryDy=0;entryPerimeter=0;exitX=0;exitY=0.5;exitDx=0;exitDy=0;edgeStyle=orthogonalEdgeStyle;strokeColor=#00FF00;fillColor=#00FF00;" parent="1" source="Du0yvdXYlzZmZNrRCehT-109" target="Du0yvdXYlzZmZNrRCehT-111" edge="1">
          <mxGeometry width="50" height="50" relative="1" as="geometry">
            <mxPoint x="412" y="944" as="sourcePoint" />
            <mxPoint x="462" y="894" as="targetPoint" />
            <Array as="points">
              <mxPoint x="454.5" y="741" />
              <mxPoint x="454.5" y="770" />
              <mxPoint x="268.5" y="770" />
            </Array>
          </mxGeometry>
        </mxCell>
        <mxCell id="Du0yvdXYlzZmZNrRCehT-122" value="" style="ellipse;whiteSpace=wrap;html=1;align=center;aspect=fixed;fillColor=none;strokeColor=none;resizable=0;perimeter=centerPerimeter;rotatable=0;allowArrows=0;points=[];outlineConnect=1;" parent="1" vertex="1">
          <mxGeometry x="325" y="420" width="10" height="10" as="geometry" />
        </mxCell>
        <mxCell id="Du0yvdXYlzZmZNrRCehT-124" value="" style="ellipse;whiteSpace=wrap;html=1;align=center;aspect=fixed;fillColor=none;strokeColor=none;resizable=0;perimeter=centerPerimeter;rotatable=0;allowArrows=0;points=[];outlineConnect=1;" parent="1" vertex="1">
          <mxGeometry x="283" y="460" width="10" height="10" as="geometry" />
        </mxCell>
        <mxCell id="Du0yvdXYlzZmZNrRCehT-132" value="" style="shape=providedRequiredInterface;html=1;verticalLabelPosition=bottom;sketch=0;rotation=90;strokeColor=#00FF00;fillColor=#00FF00;" parent="1" vertex="1">
          <mxGeometry x="88" y="540" width="20" height="20" as="geometry" />
        </mxCell>
        <mxCell id="Du0yvdXYlzZmZNrRCehT-133" value="" style="shape=providedRequiredInterface;html=1;verticalLabelPosition=bottom;sketch=0;rotation=90;strokeColor=#00FF00;fillColor=#00FF00;" parent="1" vertex="1">
          <mxGeometry x="249" y="273" width="20" height="20" as="geometry" />
        </mxCell>
        <mxCell id="Du0yvdXYlzZmZNrRCehT-134" value="" style="endArrow=none;html=1;rounded=0;exitX=0;exitY=0.5;exitDx=0;exitDy=0;entryX=0.5;entryY=1;entryDx=0;entryDy=0;exitPerimeter=0;strokeColor=#00FF00;" parent="1" source="Du0yvdXYlzZmZNrRCehT-133" target="Du0yvdXYlzZmZNrRCehT-39" edge="1">
          <mxGeometry width="50" height="50" relative="1" as="geometry">
            <mxPoint x="235" y="280" as="sourcePoint" />
            <mxPoint x="235" y="240" as="targetPoint" />
          </mxGeometry>
        </mxCell>
        <mxCell id="Du0yvdXYlzZmZNrRCehT-136" value="" style="endArrow=none;html=1;rounded=0;exitX=1;exitY=0.5;exitDx=0;exitDy=0;exitPerimeter=0;entryX=0.5;entryY=0;entryDx=0;entryDy=0;strokeColor=#00FF00;edgeStyle=orthogonalEdgeStyle;fillColor=#00FF00;" parent="1" source="Du0yvdXYlzZmZNrRCehT-133" target="Du0yvdXYlzZmZNrRCehT-82" edge="1">
          <mxGeometry width="50" height="50" relative="1" as="geometry">
            <mxPoint x="190" y="350" as="sourcePoint" />
            <mxPoint x="400" y="650" as="targetPoint" />
            <Array as="points">
              <mxPoint x="259" y="318" />
              <mxPoint x="238" y="318" />
            </Array>
          </mxGeometry>
        </mxCell>
        <mxCell id="Du0yvdXYlzZmZNrRCehT-137" value="" style="endArrow=none;html=1;rounded=0;exitX=0;exitY=0.5;exitDx=0;exitDy=0;entryX=0.323;entryY=1.006;entryDx=0;entryDy=0;exitPerimeter=0;entryPerimeter=0;strokeColor=#00FF00;" parent="1" source="Du0yvdXYlzZmZNrRCehT-132" target="Du0yvdXYlzZmZNrRCehT-43" edge="1">
          <mxGeometry width="50" height="50" relative="1" as="geometry">
            <mxPoint x="200" y="360" as="sourcePoint" />
            <mxPoint x="218" y="330" as="targetPoint" />
          </mxGeometry>
        </mxCell>
        <mxCell id="Du0yvdXYlzZmZNrRCehT-138" value="" style="endArrow=none;html=1;rounded=0;exitX=0;exitY=0;exitDx=0;exitDy=181.5;entryX=1;entryY=0.5;entryDx=0;entryDy=0;entryPerimeter=0;strokeColor=#00FF00;edgeStyle=orthogonalEdgeStyle;exitPerimeter=0;fillColor=#00FF00;" parent="1" source="Du0yvdXYlzZmZNrRCehT-81" target="Du0yvdXYlzZmZNrRCehT-132" edge="1">
          <mxGeometry width="50" height="50" relative="1" as="geometry">
            <mxPoint x="210" y="370" as="sourcePoint" />
            <mxPoint x="228" y="340" as="targetPoint" />
            <Array as="points">
              <mxPoint x="98" y="695" />
            </Array>
          </mxGeometry>
        </mxCell>
        <mxCell id="Du0yvdXYlzZmZNrRCehT-161" value="&lt;font style=&quot;font-size: 6px;&quot;&gt;Temperature Sensors&lt;/font&gt;" style="html=1;dropTarget=0;whiteSpace=wrap;strokeColor=#00994D;fillColor=#DAE8DD;" parent="1" vertex="1">
          <mxGeometry x="10" y="445" width="123" height="40" as="geometry" />
        </mxCell>
        <mxCell id="Du0yvdXYlzZmZNrRCehT-162" value="" style="shape=module;jettyWidth=8;jettyHeight=4;" parent="Du0yvdXYlzZmZNrRCehT-161" vertex="1">
          <mxGeometry x="1" width="20" height="20" relative="1" as="geometry">
            <mxPoint x="-27" y="7" as="offset" />
          </mxGeometry>
        </mxCell>
        <mxCell id="Du0yvdXYlzZmZNrRCehT-167" value="" style="shape=providedRequiredInterface;html=1;verticalLabelPosition=bottom;sketch=0;rotation=90;strokeColor=#00FF00;fillColor=#00FF00;" parent="1" vertex="1">
          <mxGeometry x="30" y="500" width="20" height="20" as="geometry" />
        </mxCell>
        <mxCell id="Du0yvdXYlzZmZNrRCehT-168" value="" style="endArrow=none;html=1;rounded=0;entryX=0;entryY=0.5;entryDx=0;entryDy=0;entryPerimeter=0;exitX=0.25;exitY=1;exitDx=0;exitDy=0;strokeColor=#00FF00;" parent="1" source="Du0yvdXYlzZmZNrRCehT-161" target="Du0yvdXYlzZmZNrRCehT-167" edge="1">
          <mxGeometry width="50" height="50" relative="1" as="geometry">
            <mxPoint x="750" y="480" as="sourcePoint" />
            <mxPoint x="800" y="430" as="targetPoint" />
          </mxGeometry>
        </mxCell>
        <mxCell id="Du0yvdXYlzZmZNrRCehT-171" value="" style="endArrow=none;html=1;rounded=0;entryX=1;entryY=0.5;entryDx=0;entryDy=0;entryPerimeter=0;exitX=0;exitY=0;exitDx=0;exitDy=181.5;strokeColor=#00FF00;edgeStyle=orthogonalEdgeStyle;exitPerimeter=0;fillColor=#00FF00;" parent="1" source="Du0yvdXYlzZmZNrRCehT-81" target="Du0yvdXYlzZmZNrRCehT-167" edge="1">
          <mxGeometry width="50" height="50" relative="1" as="geometry">
            <mxPoint x="850" y="990" as="sourcePoint" />
            <mxPoint x="800" y="500" as="targetPoint" />
            <Array as="points">
              <mxPoint x="40" y="695" />
            </Array>
          </mxGeometry>
        </mxCell>
        <mxCell id="Du0yvdXYlzZmZNrRCehT-190" value="" style="shape=providedRequiredInterface;html=1;verticalLabelPosition=bottom;sketch=0;rotation=-90;" parent="1" vertex="1">
          <mxGeometry x="477" y="510" width="20" height="20" as="geometry" />
        </mxCell>
        <mxCell id="Du0yvdXYlzZmZNrRCehT-191" value="" style="endArrow=none;html=1;rounded=0;entryX=0;entryY=0;entryDx=355;entryDy=30;exitX=0;exitY=0.5;exitDx=0;exitDy=0;exitPerimeter=0;entryPerimeter=0;strokeColor=#FF8000;edgeStyle=orthogonalEdgeStyle;" parent="1" source="Du0yvdXYlzZmZNrRCehT-190" target="Du0yvdXYlzZmZNrRCehT-81" edge="1">
          <mxGeometry width="50" height="50" relative="1" as="geometry">
            <mxPoint x="549" y="480" as="sourcePoint" />
            <mxPoint x="444.5" y="1040" as="targetPoint" />
          </mxGeometry>
        </mxCell>
        <mxCell id="Du0yvdXYlzZmZNrRCehT-195" value="&lt;font style=&quot;font-size: 6px;&quot;&gt;Handling Cooking Mode&lt;/font&gt;" style="edgeLabel;html=1;align=center;verticalAlign=middle;resizable=0;points=[];" parent="Du0yvdXYlzZmZNrRCehT-191" vertex="1" connectable="0">
          <mxGeometry x="0.1955" relative="1" as="geometry">
            <mxPoint x="28" y="-18" as="offset" />
          </mxGeometry>
        </mxCell>
        <mxCell id="Du0yvdXYlzZmZNrRCehT-192" value="" style="endArrow=none;html=1;rounded=0;exitX=1;exitY=0.5;exitDx=0;exitDy=0;exitPerimeter=0;entryX=0.25;entryY=1;entryDx=0;entryDy=0;strokeColor=#FF8000;edgeStyle=orthogonalEdgeStyle;" parent="1" source="Du0yvdXYlzZmZNrRCehT-190" target="Du0yvdXYlzZmZNrRCehT-1" edge="1">
          <mxGeometry width="50" height="50" relative="1" as="geometry">
            <mxPoint x="500" y="1120" as="sourcePoint" />
            <mxPoint x="550" y="1070" as="targetPoint" />
          </mxGeometry>
        </mxCell>
        <mxCell id="Du0yvdXYlzZmZNrRCehT-197" value="" style="shape=providedRequiredInterface;html=1;verticalLabelPosition=bottom;sketch=0;rotation=-90;" parent="1" vertex="1">
          <mxGeometry x="448" y="277" width="20" height="20" as="geometry" />
        </mxCell>
        <mxCell id="Du0yvdXYlzZmZNrRCehT-200" value="" style="endArrow=none;html=1;rounded=0;entryX=0;entryY=0.5;entryDx=0;entryDy=0;entryPerimeter=0;strokeColor=#000000;exitX=0.25;exitY=0;exitDx=0;exitDy=0;" parent="1" source="Du0yvdXYlzZmZNrRCehT-1" target="Du0yvdXYlzZmZNrRCehT-197" edge="1">
          <mxGeometry width="50" height="50" relative="1" as="geometry">
            <mxPoint x="430" y="320" as="sourcePoint" />
            <mxPoint x="228" y="340" as="targetPoint" />
          </mxGeometry>
        </mxCell>
        <mxCell id="Du0yvdXYlzZmZNrRCehT-201" value="&lt;span style=&quot;font-size: 6px;&quot;&gt;Active cameras&lt;/span&gt;" style="edgeLabel;html=1;align=center;verticalAlign=middle;resizable=0;points=[];rotation=0;" parent="Du0yvdXYlzZmZNrRCehT-200" vertex="1" connectable="0">
          <mxGeometry x="0.1017" y="-6" relative="1" as="geometry">
            <mxPoint x="25" y="1" as="offset" />
          </mxGeometry>
        </mxCell>
        <mxCell id="Du0yvdXYlzZmZNrRCehT-202" value="" style="shape=providedRequiredInterface;html=1;verticalLabelPosition=bottom;sketch=0;rotation=-180;" parent="1" vertex="1">
          <mxGeometry x="333" y="442" width="20" height="20" as="geometry" />
        </mxCell>
        <mxCell id="Du0yvdXYlzZmZNrRCehT-203" value="" style="endArrow=none;html=1;rounded=0;exitX=0;exitY=0.5;exitDx=0;exitDy=0;entryX=0;entryY=0.75;entryDx=0;entryDy=0;exitPerimeter=0;strokeColor=#FF8000;" parent="1" source="Du0yvdXYlzZmZNrRCehT-202" target="Du0yvdXYlzZmZNrRCehT-1" edge="1">
          <mxGeometry width="50" height="50" relative="1" as="geometry">
            <mxPoint x="370" y="320" as="sourcePoint" />
            <mxPoint x="290" y="300" as="targetPoint" />
          </mxGeometry>
        </mxCell>
        <mxCell id="Du0yvdXYlzZmZNrRCehT-207" value="&lt;font style=&quot;font-size: 6px;&quot;&gt;Active Cooking Sensors&lt;/font&gt;" style="edgeLabel;html=1;align=center;verticalAlign=middle;resizable=0;points=[];rotation=0;" parent="Du0yvdXYlzZmZNrRCehT-203" vertex="1" connectable="0">
          <mxGeometry x="-0.1522" y="-1" relative="1" as="geometry">
            <mxPoint x="-27" y="17" as="offset" />
          </mxGeometry>
        </mxCell>
        <mxCell id="Du0yvdXYlzZmZNrRCehT-205" value="" style="endArrow=none;html=1;rounded=0;entryX=1;entryY=0.25;entryDx=0;entryDy=0;strokeColor=#000000;exitX=1;exitY=0.5;exitDx=0;exitDy=0;exitPerimeter=0;edgeStyle=orthogonalEdgeStyle;" parent="1" source="Du0yvdXYlzZmZNrRCehT-197" target="Du0yvdXYlzZmZNrRCehT-39" edge="1">
          <mxGeometry width="50" height="50" relative="1" as="geometry">
            <mxPoint x="310" y="310" as="sourcePoint" />
            <mxPoint x="310" y="320" as="targetPoint" />
          </mxGeometry>
        </mxCell>
        <mxCell id="Du0yvdXYlzZmZNrRCehT-209" value="" style="shape=folder;fontStyle=1;tabWidth=129;tabHeight=30;tabPosition=left;html=1;boundedLbl=1;whiteSpace=wrap;strokeColor=#999900;fillColor=#FFFFCC;" parent="1" vertex="1">
          <mxGeometry x="10" y="40" width="150" height="400" as="geometry" />
        </mxCell>
        <mxCell id="Du0yvdXYlzZmZNrRCehT-210" value="&lt;font style=&quot;font-size: 6px;&quot;&gt;Surface_Characterisation Algorithms&lt;/font&gt;" style="html=1;dropTarget=0;whiteSpace=wrap;strokeColor=#0000CC;fillColor=#F2FAFF;" parent="1" vertex="1">
          <mxGeometry x="17" y="151" width="137" height="59" as="geometry" />
        </mxCell>
        <mxCell id="Du0yvdXYlzZmZNrRCehT-211" value="" style="shape=module;jettyWidth=8;jettyHeight=4;" parent="Du0yvdXYlzZmZNrRCehT-210" vertex="1">
          <mxGeometry x="1" width="20" height="20" relative="1" as="geometry">
            <mxPoint x="-27" y="7" as="offset" />
          </mxGeometry>
        </mxCell>
        <mxCell id="Du0yvdXYlzZmZNrRCehT-215" value="&lt;font style=&quot;font-size: 6px;&quot;&gt;Cleaning, Handling Fragile Objects&lt;/font&gt;" style="html=1;dropTarget=0;whiteSpace=wrap;strokeColor=#99004D;fillColor=#FFEDF7;" parent="1" vertex="1">
          <mxGeometry x="23.5" y="257" width="124.5" height="63" as="geometry" />
        </mxCell>
        <mxCell id="Du0yvdXYlzZmZNrRCehT-216" value="" style="shape=module;jettyWidth=8;jettyHeight=4;" parent="Du0yvdXYlzZmZNrRCehT-215" vertex="1">
          <mxGeometry x="1" width="20" height="20" relative="1" as="geometry">
            <mxPoint x="-27" y="7" as="offset" />
          </mxGeometry>
        </mxCell>
        <mxCell id="Du0yvdXYlzZmZNrRCehT-220" value="" style="shape=providedRequiredInterface;html=1;verticalLabelPosition=bottom;sketch=0;rotation=90;strokeColor=#00FF00;fillColor=#00FF00;" parent="1" vertex="1">
          <mxGeometry x="75.5" y="225" width="20" height="20" as="geometry" />
        </mxCell>
        <mxCell id="Du0yvdXYlzZmZNrRCehT-225" value="" style="endArrow=none;html=1;rounded=0;exitX=0.5;exitY=1;exitDx=0;exitDy=0;entryX=0;entryY=0.5;entryDx=0;entryDy=0;entryPerimeter=0;strokeColor=#00FF00;fillColor=#00FF00;" parent="1" source="Du0yvdXYlzZmZNrRCehT-210" target="Du0yvdXYlzZmZNrRCehT-220" edge="1">
          <mxGeometry width="50" height="50" relative="1" as="geometry">
            <mxPoint x="11.500000000000227" y="230" as="sourcePoint" />
            <mxPoint x="390" y="150" as="targetPoint" />
            <Array as="points" />
          </mxGeometry>
        </mxCell>
        <mxCell id="Du0yvdXYlzZmZNrRCehT-226" value="" style="endArrow=none;html=1;rounded=0;exitX=1;exitY=0.5;exitDx=0;exitDy=0;exitPerimeter=0;entryX=0.5;entryY=0;entryDx=0;entryDy=0;strokeColor=#00FF00;fillColor=#00FF00;" parent="1" source="Du0yvdXYlzZmZNrRCehT-220" target="Du0yvdXYlzZmZNrRCehT-215" edge="1">
          <mxGeometry width="50" height="50" relative="1" as="geometry">
            <mxPoint x="340" y="200" as="sourcePoint" />
            <mxPoint x="390" y="150" as="targetPoint" />
          </mxGeometry>
        </mxCell>
        <mxCell id="Du0yvdXYlzZmZNrRCehT-229" value="" style="shape=providedRequiredInterface;html=1;verticalLabelPosition=bottom;sketch=0;rotation=0;" parent="1" vertex="1">
          <mxGeometry x="181" y="335" width="20" height="20" as="geometry" />
        </mxCell>
        <mxCell id="Du0yvdXYlzZmZNrRCehT-230" value="" style="endArrow=none;html=1;rounded=0;entryX=0;entryY=0.5;entryDx=0;entryDy=0;entryPerimeter=0;exitX=0;exitY=0;exitDx=150;exitDy=240;exitPerimeter=0;strokeColor=#666600;edgeStyle=orthogonalEdgeStyle;" parent="1" source="Du0yvdXYlzZmZNrRCehT-209" target="Du0yvdXYlzZmZNrRCehT-229" edge="1">
          <mxGeometry width="50" height="50" relative="1" as="geometry">
            <mxPoint x="340" y="430" as="sourcePoint" />
            <mxPoint x="390" y="380" as="targetPoint" />
          </mxGeometry>
        </mxCell>
        <mxCell id="Du0yvdXYlzZmZNrRCehT-232" value="" style="shape=providedRequiredInterface;html=1;verticalLabelPosition=bottom;sketch=0;rotation=-180;strokeColor=#00FF00;fillColor=#00FF00;" parent="1" vertex="1">
          <mxGeometry x="178" y="164.5" width="20" height="20" as="geometry" />
        </mxCell>
        <mxCell id="Du0yvdXYlzZmZNrRCehT-235" value="" style="endArrow=none;html=1;rounded=0;entryX=0.25;entryY=0;entryDx=0;entryDy=0;exitX=0;exitY=0.5;exitDx=0;exitDy=0;exitPerimeter=0;strokeColor=#00FF00;edgeStyle=orthogonalEdgeStyle;fillColor=#00FF00;" parent="1" source="Du0yvdXYlzZmZNrRCehT-232" target="Du0yvdXYlzZmZNrRCehT-39" edge="1">
          <mxGeometry width="50" height="50" relative="1" as="geometry">
            <mxPoint x="230" y="320" as="sourcePoint" />
            <mxPoint x="254" y="210" as="targetPoint" />
          </mxGeometry>
        </mxCell>
        <mxCell id="Du0yvdXYlzZmZNrRCehT-238" value="" style="endArrow=none;html=1;rounded=0;entryX=1;entryY=0.5;entryDx=0;entryDy=0;entryPerimeter=0;strokeColor=#00FF00;exitX=0;exitY=0;exitDx=150;exitDy=135;exitPerimeter=0;" parent="1" source="Du0yvdXYlzZmZNrRCehT-209" target="Du0yvdXYlzZmZNrRCehT-232" edge="1">
          <mxGeometry width="50" height="50" relative="1" as="geometry">
            <mxPoint x="160" y="330" as="sourcePoint" />
            <mxPoint x="280" y="270" as="targetPoint" />
          </mxGeometry>
        </mxCell>
        <mxCell id="Du0yvdXYlzZmZNrRCehT-240" value="" style="endArrow=none;html=1;rounded=0;entryX=1;entryY=0.5;entryDx=0;entryDy=0;entryPerimeter=0;strokeColor=#666600;edgeStyle=orthogonalEdgeStyle;exitX=0;exitY=0.25;exitDx=0;exitDy=0;" parent="1" source="Du0yvdXYlzZmZNrRCehT-1" target="Du0yvdXYlzZmZNrRCehT-229" edge="1">
          <mxGeometry width="50" height="50" relative="1" as="geometry">
            <mxPoint x="320" y="430" as="sourcePoint" />
            <mxPoint x="90" y="400" as="targetPoint" />
            <Array as="points">
              <mxPoint x="350" y="377" />
              <mxPoint x="350" y="345" />
            </Array>
          </mxGeometry>
        </mxCell>
        <mxCell id="Du0yvdXYlzZmZNrRCehT-259" value="&lt;span style=&quot;font-weight: 700;&quot;&gt;House Cleaning&lt;/span&gt;" style="text;html=1;align=center;verticalAlign=middle;whiteSpace=wrap;rounded=0;" parent="1" vertex="1">
          <mxGeometry x="10" y="40" width="109" height="30" as="geometry" />
        </mxCell>
        <mxCell id="Du0yvdXYlzZmZNrRCehT-260" value="&lt;font style=&quot;font-size: 6px;&quot;&gt;Tactile &amp;amp; Pressure Sensors&lt;/font&gt;" style="html=1;dropTarget=0;whiteSpace=wrap;strokeColor=#00994D;fillColor=#DAE8DD;" parent="1" vertex="1">
          <mxGeometry x="24" y="381" width="123" height="50" as="geometry" />
        </mxCell>
        <mxCell id="Du0yvdXYlzZmZNrRCehT-261" value="" style="shape=module;jettyWidth=8;jettyHeight=4;" parent="Du0yvdXYlzZmZNrRCehT-260" vertex="1">
          <mxGeometry x="1" width="20" height="20" relative="1" as="geometry">
            <mxPoint x="-27" y="7" as="offset" />
          </mxGeometry>
        </mxCell>
        <mxCell id="Du0yvdXYlzZmZNrRCehT-268" value="" style="shape=providedRequiredInterface;html=1;verticalLabelPosition=bottom;sketch=0;rotation=-90;strokeColor=#00FF00;fillColor=#00FF00;" parent="1" vertex="1">
          <mxGeometry x="45" y="346" width="20" height="20" as="geometry" />
        </mxCell>
        <mxCell id="Du0yvdXYlzZmZNrRCehT-269" value="" style="shape=providedRequiredInterface;html=1;verticalLabelPosition=bottom;sketch=0;rotation=-180;" parent="1" vertex="1">
          <mxGeometry x="326" y="385" width="20" height="20" as="geometry" />
        </mxCell>
        <mxCell id="Du0yvdXYlzZmZNrRCehT-270" value="" style="endArrow=none;html=1;rounded=0;exitX=1;exitY=0.5;exitDx=0;exitDy=0;entryX=1;entryY=0.5;entryDx=0;entryDy=0;entryPerimeter=0;strokeColor=#666600;edgeStyle=orthogonalEdgeStyle;" parent="1" source="Du0yvdXYlzZmZNrRCehT-260" target="Du0yvdXYlzZmZNrRCehT-269" edge="1">
          <mxGeometry width="50" height="50" relative="1" as="geometry">
            <mxPoint x="230" y="440" as="sourcePoint" />
            <mxPoint x="280" y="390" as="targetPoint" />
            <Array as="points">
              <mxPoint x="230" y="406" />
              <mxPoint x="230" y="395" />
            </Array>
          </mxGeometry>
        </mxCell>
        <mxCell id="9xKh0rzojqSke07yhVQ2-4" value="&lt;span style=&quot;color: rgba(0, 0, 0, 0); font-family: monospace; font-size: 0px; text-align: start; background-color: rgb(251, 251, 251);&quot;&gt;%3CmxGraphModel%3E%3Croot%3E%3CmxCell%20id%3D%220%22%2F%3E%3CmxCell%20id%3D%221%22%20parent%3D%220%22%2F%3E%3CmxCell%20id%3D%222%22%20value%3D%22%26lt%3Bfont%20style%3D%26quot%3Bfont-size%3A%206px%3B%26quot%3B%26gt%3BActive%20Tac.%20Sensor%26lt%3B%2Ffont%26gt%3B%22%20style%3D%22edgeLabel%3Bhtml%3D1%3Balign%3Dcenter%3BverticalAlign%3Dmiddle%3Bresizable%3D0%3Bpoints%3D%5B%5D%3B%22%20vertex%3D%221%22%20connectable%3D%220%22%20parent%3D%221%22%3E%3CmxGeometry%20x%3D%22-127.07649533957124%22%20y%3D%22388.2874173774295%22%20as%3D%22geometry%22%2F%3E%3C%2FmxCell%3E%3C%2Froot%3E%3C%2FmxGraphModel%3E&lt;/span&gt;" style="edgeLabel;html=1;align=center;verticalAlign=middle;resizable=0;points=[];" parent="Du0yvdXYlzZmZNrRCehT-270" vertex="1" connectable="0">
          <mxGeometry x="0.677" relative="1" as="geometry">
            <mxPoint as="offset" />
          </mxGeometry>
        </mxCell>
        <mxCell id="9xKh0rzojqSke07yhVQ2-5" value="&lt;span style=&quot;font-size: 6px;&quot;&gt;Active Sensor&lt;/span&gt;" style="edgeLabel;html=1;align=center;verticalAlign=middle;resizable=0;points=[];" parent="Du0yvdXYlzZmZNrRCehT-270" vertex="1" connectable="0">
          <mxGeometry x="0.6143" y="2" relative="1" as="geometry">
            <mxPoint x="-109" y="21" as="offset" />
          </mxGeometry>
        </mxCell>
        <mxCell id="Du0yvdXYlzZmZNrRCehT-271" value="" style="endArrow=none;html=1;rounded=0;exitX=0.25;exitY=0;exitDx=0;exitDy=0;entryX=0;entryY=0.5;entryDx=0;entryDy=0;entryPerimeter=0;strokeColor=#00FF00;edgeStyle=orthogonalEdgeStyle;" parent="1" source="Du0yvdXYlzZmZNrRCehT-260" target="Du0yvdXYlzZmZNrRCehT-268" edge="1">
          <mxGeometry width="50" height="50" relative="1" as="geometry">
            <mxPoint x="340" y="450" as="sourcePoint" />
            <mxPoint x="390" y="400" as="targetPoint" />
          </mxGeometry>
        </mxCell>
        <mxCell id="N41uhDiBMSRZs3F5Qhvz-12" value="&lt;font style=&quot;font-size: 6px;&quot;&gt;Data&lt;/font&gt;" style="edgeLabel;html=1;align=center;verticalAlign=middle;resizable=0;points=[];" parent="Du0yvdXYlzZmZNrRCehT-271" vertex="1" connectable="0">
          <mxGeometry x="-0.1547" y="2" relative="1" as="geometry">
            <mxPoint x="-22" y="-16" as="offset" />
          </mxGeometry>
        </mxCell>
        <mxCell id="Du0yvdXYlzZmZNrRCehT-272" value="" style="endArrow=none;html=1;rounded=0;exitX=0;exitY=0.5;exitDx=0;exitDy=0;exitPerimeter=0;entryX=0.003;entryY=0.364;entryDx=0;entryDy=0;entryPerimeter=0;strokeColor=#666600;" parent="1" source="Du0yvdXYlzZmZNrRCehT-269" target="Du0yvdXYlzZmZNrRCehT-1" edge="1">
          <mxGeometry width="50" height="50" relative="1" as="geometry">
            <mxPoint x="230" y="440" as="sourcePoint" />
            <mxPoint x="280" y="390" as="targetPoint" />
          </mxGeometry>
        </mxCell>
        <mxCell id="Du0yvdXYlzZmZNrRCehT-273" value="" style="endArrow=none;html=1;rounded=0;exitX=1;exitY=0.5;exitDx=0;exitDy=0;exitPerimeter=0;entryX=0.25;entryY=1;entryDx=0;entryDy=0;strokeColor=#00FF00;" parent="1" source="Du0yvdXYlzZmZNrRCehT-268" target="Du0yvdXYlzZmZNrRCehT-215" edge="1">
          <mxGeometry width="50" height="50" relative="1" as="geometry">
            <mxPoint x="340" y="450" as="sourcePoint" />
            <mxPoint x="-120" y="660" as="targetPoint" />
          </mxGeometry>
        </mxCell>
        <mxCell id="D1QgeajsOSIsV9LwH4yA-5" value="" style="shape=providedRequiredInterface;html=1;verticalLabelPosition=bottom;sketch=0;rotation=90;" parent="1" vertex="1">
          <mxGeometry x="630.75" y="184.5" width="20" height="20" as="geometry" />
        </mxCell>
        <mxCell id="D1QgeajsOSIsV9LwH4yA-6" value="" style="endArrow=none;html=1;rounded=0;exitX=0.75;exitY=0;exitDx=0;exitDy=0;entryX=1;entryY=0.5;entryDx=0;entryDy=0;entryPerimeter=0;strokeColor=#4C0099;edgeStyle=orthogonalEdgeStyle;" parent="1" source="Du0yvdXYlzZmZNrRCehT-1" target="D1QgeajsOSIsV9LwH4yA-5" edge="1">
          <mxGeometry width="50" height="50" relative="1" as="geometry">
            <mxPoint x="730" y="320" as="sourcePoint" />
            <mxPoint x="780" y="270" as="targetPoint" />
          </mxGeometry>
        </mxCell>
        <mxCell id="D1QgeajsOSIsV9LwH4yA-7" value="" style="endArrow=none;html=1;rounded=0;exitX=0.721;exitY=1;exitDx=0;exitDy=0;exitPerimeter=0;entryX=0;entryY=0.5;entryDx=0;entryDy=0;entryPerimeter=0;strokeColor=#4C0099;" parent="1" source="Du0yvdXYlzZmZNrRCehT-3" target="D1QgeajsOSIsV9LwH4yA-5" edge="1">
          <mxGeometry width="50" height="50" relative="1" as="geometry">
            <mxPoint x="557" y="295" as="sourcePoint" />
            <mxPoint x="627.7106781186548" y="245" as="targetPoint" />
          </mxGeometry>
        </mxCell>
        <mxCell id="D1QgeajsOSIsV9LwH4yA-8" value="&lt;span style=&quot;font-size: 6px;&quot;&gt;Handling 3D Mapping&lt;/span&gt;" style="edgeLabel;html=1;align=center;verticalAlign=middle;resizable=0;points=[];" parent="D1QgeajsOSIsV9LwH4yA-7" vertex="1" connectable="0">
          <mxGeometry x="0.2186" y="1" relative="1" as="geometry">
            <mxPoint x="39" y="15" as="offset" />
          </mxGeometry>
        </mxCell>
        <mxCell id="D1QgeajsOSIsV9LwH4yA-11" value="&lt;b&gt;&lt;font style=&quot;font-size: 6px;&quot;&gt;Cloud_based&amp;nbsp;cognitive components&lt;/font&gt;&lt;/b&gt;" style="rounded=0;whiteSpace=wrap;html=1;strokeColor=#0000CC;fillColor=#F2FAFF;" parent="1" vertex="1">
          <mxGeometry x="38" y="790" width="116.25" height="36" as="geometry" />
        </mxCell>
        <mxCell id="D1QgeajsOSIsV9LwH4yA-12" value="&lt;font style=&quot;font-size: 6px;&quot;&gt;&lt;b style=&quot;&quot;&gt;On-premises cognitive components&lt;/b&gt;&lt;/font&gt;" style="rounded=0;whiteSpace=wrap;html=1;strokeColor=#CC0066;fillColor=#FFF2F9;" parent="1" vertex="1">
          <mxGeometry x="171" y="790" width="129" height="36" as="geometry" />
        </mxCell>
        <mxCell id="D1QgeajsOSIsV9LwH4yA-13" value="&lt;font style=&quot;font-size: 8px;&quot;&gt;&lt;b style=&quot;&quot;&gt;Sensors&lt;/b&gt;&lt;/font&gt;" style="rounded=0;whiteSpace=wrap;html=1;strokeColor=#00994D;fillColor=#DAE8DD;" parent="1" vertex="1">
          <mxGeometry x="307.25" y="790" width="79" height="36" as="geometry" />
        </mxCell>
        <mxCell id="D1QgeajsOSIsV9LwH4yA-14" value="&lt;font style=&quot;font-size: 6px;&quot;&gt;&lt;b style=&quot;&quot;&gt;State Machine&lt;/b&gt;&lt;/font&gt;" style="strokeWidth=2;html=1;shape=mxgraph.flowchart.multi-document;whiteSpace=wrap;strokeColor=#B5739D;fillColor=#F7D2DC;" parent="1" vertex="1">
          <mxGeometry x="395.19" y="790" width="75.5" height="36" as="geometry" />
        </mxCell>
        <mxCell id="D1QgeajsOSIsV9LwH4yA-18" value="" style="strokeWidth=2;html=1;shape=mxgraph.flowchart.multi-document;whiteSpace=wrap;fillColor=#F7D2DC;strokeColor=#B5739D;" parent="1" vertex="1">
          <mxGeometry x="635.75" y="720" width="19" height="15" as="geometry" />
        </mxCell>
        <mxCell id="D1QgeajsOSIsV9LwH4yA-27" value="" style="endArrow=none;html=1;rounded=0;strokeColor=#FF8000;entryX=1;entryY=0.5;entryDx=0;entryDy=0;entryPerimeter=0;edgeStyle=orthogonalEdgeStyle;exitX=1;exitY=0.25;exitDx=0;exitDy=0;" parent="1" source="Du0yvdXYlzZmZNrRCehT-43" target="Du0yvdXYlzZmZNrRCehT-202" edge="1">
          <mxGeometry width="50" height="50" relative="1" as="geometry">
            <mxPoint x="170" y="540" as="sourcePoint" />
            <mxPoint x="352" y="500" as="targetPoint" />
            <Array as="points">
              <mxPoint x="290" y="500" />
              <mxPoint x="290" y="452" />
            </Array>
          </mxGeometry>
        </mxCell>
        <mxCell id="D1QgeajsOSIsV9LwH4yA-29" value="" style="shape=folder;fontStyle=1;spacingTop=10;tabWidth=95;tabHeight=20;tabPosition=left;html=1;whiteSpace=wrap;" parent="1" vertex="1">
          <mxGeometry x="471.5" y="559" width="150.5" height="121" as="geometry" />
        </mxCell>
        <mxCell id="D1QgeajsOSIsV9LwH4yA-30" value="&lt;span style=&quot;font-size: 6px;&quot;&gt;Select the best Pre_set Recipe&lt;/span&gt;" style="html=1;dropTarget=0;whiteSpace=wrap;strokeColor=#99004D;fillColor=#FFEDF7;" parent="1" vertex="1">
          <mxGeometry x="479" y="602" width="140" height="46" as="geometry" />
        </mxCell>
        <mxCell id="D1QgeajsOSIsV9LwH4yA-31" value="" style="shape=module;jettyWidth=8;jettyHeight=4;" parent="D1QgeajsOSIsV9LwH4yA-30" vertex="1">
          <mxGeometry x="1" width="20" height="20" relative="1" as="geometry">
            <mxPoint x="-27" y="7" as="offset" />
          </mxGeometry>
        </mxCell>
        <mxCell id="D1QgeajsOSIsV9LwH4yA-32" value="&lt;font style=&quot;font-size: 12px;&quot;&gt;Pre_set Recipe&lt;/font&gt;" style="text;html=1;align=center;verticalAlign=middle;whiteSpace=wrap;rounded=0;" parent="1" vertex="1">
          <mxGeometry x="477" y="554" width="90" height="30" as="geometry" />
        </mxCell>
        <mxCell id="D1QgeajsOSIsV9LwH4yA-33" value="" style="strokeWidth=2;html=1;shape=mxgraph.flowchart.multi-document;whiteSpace=wrap;fillColor=#F7D2DC;strokeColor=#B5739D;" parent="1" vertex="1">
          <mxGeometry x="30" y="264" width="20" height="16" as="geometry" />
        </mxCell>
        <mxCell id="Ek_Ka6FN4FQSGdoHX6rn-1" value="" style="shape=providedRequiredInterface;html=1;verticalLabelPosition=bottom;sketch=0;rotation=90;strokeColor=#00FF00;fillColor=#00FF00;" parent="1" vertex="1">
          <mxGeometry x="575" y="695.5" width="20" height="20" as="geometry" />
        </mxCell>
        <mxCell id="Ek_Ka6FN4FQSGdoHX6rn-2" value="" style="endArrow=none;html=1;rounded=0;entryX=0;entryY=0.5;entryDx=0;entryDy=0;entryPerimeter=0;strokeColor=#00FF00;" parent="1" target="Ek_Ka6FN4FQSGdoHX6rn-1" edge="1">
          <mxGeometry width="50" height="50" relative="1" as="geometry">
            <mxPoint x="584" y="680" as="sourcePoint" />
            <mxPoint x="812" y="274" as="targetPoint" />
          </mxGeometry>
        </mxCell>
        <mxCell id="Ek_Ka6FN4FQSGdoHX6rn-5" value="&lt;font style=&quot;font-size: 6px;&quot;&gt;Structure&lt;/font&gt;" style="edgeLabel;html=1;align=center;verticalAlign=middle;resizable=0;points=[];" parent="Ek_Ka6FN4FQSGdoHX6rn-2" vertex="1" connectable="0">
          <mxGeometry x="-0.4639" y="-1" relative="1" as="geometry">
            <mxPoint x="-19" y="10" as="offset" />
          </mxGeometry>
        </mxCell>
        <mxCell id="Ek_Ka6FN4FQSGdoHX6rn-4" value="" style="endArrow=none;html=1;rounded=0;exitX=1;exitY=0.5;exitDx=0;exitDy=0;exitPerimeter=0;entryX=0;entryY=0.5;entryDx=0;entryDy=0;edgeStyle=orthogonalEdgeStyle;strokeColor=#00FF00;fillColor=#00FF00;" parent="1" source="Ek_Ka6FN4FQSGdoHX6rn-1" target="Du0yvdXYlzZmZNrRCehT-109" edge="1">
          <mxGeometry width="50" height="50" relative="1" as="geometry">
            <mxPoint x="594" y="690" as="sourcePoint" />
            <mxPoint x="596" y="769" as="targetPoint" />
          </mxGeometry>
        </mxCell>
        <mxCell id="9xKh0rzojqSke07yhVQ2-11" value="" style="shape=providedRequiredInterface;html=1;verticalLabelPosition=bottom;sketch=0;" parent="1" vertex="1">
          <mxGeometry x="579" y="95" width="20" height="20" as="geometry" />
        </mxCell>
        <mxCell id="9xKh0rzojqSke07yhVQ2-12" value="" style="endArrow=none;html=1;rounded=0;entryX=0;entryY=0.5;entryDx=0;entryDy=0;entryPerimeter=0;exitX=1;exitY=0.5;exitDx=0;exitDy=0;" parent="1" source="Du0yvdXYlzZmZNrRCehT-9" target="9xKh0rzojqSke07yhVQ2-11" edge="1">
          <mxGeometry width="50" height="50" relative="1" as="geometry">
            <mxPoint x="317" y="77" as="sourcePoint" />
            <mxPoint x="367" y="27" as="targetPoint" />
          </mxGeometry>
        </mxCell>
        <mxCell id="9xKh0rzojqSke07yhVQ2-13" value="" style="endArrow=none;html=1;rounded=0;entryX=0;entryY=0.5;entryDx=0;entryDy=0;exitX=1;exitY=0.5;exitDx=0;exitDy=0;exitPerimeter=0;" parent="1" source="9xKh0rzojqSke07yhVQ2-11" target="Du0yvdXYlzZmZNrRCehT-22" edge="1">
          <mxGeometry width="50" height="50" relative="1" as="geometry">
            <mxPoint x="598" y="98" as="sourcePoint" />
            <mxPoint x="367" y="27" as="targetPoint" />
          </mxGeometry>
        </mxCell>
        <mxCell id="9xKh0rzojqSke07yhVQ2-15" value="" style="shape=flexArrow;endArrow=classic;html=1;rounded=0;strokeColor=#666600;fillColor=#FFFF00;" parent="1" edge="1">
          <mxGeometry width="50" height="50" relative="1" as="geometry">
            <mxPoint x="482" y="806" as="sourcePoint" />
            <mxPoint x="512" y="806" as="targetPoint" />
          </mxGeometry>
        </mxCell>
        <mxCell id="9xKh0rzojqSke07yhVQ2-17" value="&lt;font style=&quot;font-size: 8px;&quot;&gt;&lt;b&gt;Publish_Subscribe&lt;/b&gt;&lt;/font&gt;" style="text;html=1;align=center;verticalAlign=middle;whiteSpace=wrap;rounded=0;" parent="1" vertex="1">
          <mxGeometry x="717" y="792" width="83" height="26" as="geometry" />
        </mxCell>
        <mxCell id="9xKh0rzojqSke07yhVQ2-18" value="&lt;font style=&quot;font-size: 8px;&quot;&gt;&lt;b&gt;Adapters&amp;nbsp;&lt;/b&gt;&lt;/font&gt;" style="text;html=1;align=center;verticalAlign=middle;whiteSpace=wrap;rounded=0;" parent="1" vertex="1">
          <mxGeometry x="509" y="790" width="45" height="30" as="geometry" />
        </mxCell>
        <mxCell id="9xKh0rzojqSke07yhVQ2-21" value="" style="shape=cross;whiteSpace=wrap;html=1;strokeColor=#000066;fillColor=#009999;" parent="1" vertex="1">
          <mxGeometry x="394" y="94" width="10" height="10" as="geometry" />
        </mxCell>
        <mxCell id="9xKh0rzojqSke07yhVQ2-22" value="" style="shape=cross;whiteSpace=wrap;html=1;strokeColor=#000066;fillColor=#009999;size=0.269091796875;" parent="1" vertex="1">
          <mxGeometry x="553.5" y="790" width="31" height="30" as="geometry" />
        </mxCell>
        <mxCell id="9xKh0rzojqSke07yhVQ2-23" value="&lt;font style=&quot;font-size: 8px;&quot;&gt;&lt;b style=&quot;&quot;&gt;Computational&lt;/b&gt;&lt;/font&gt;" style="text;html=1;align=center;verticalAlign=middle;whiteSpace=wrap;rounded=0;" parent="1" vertex="1">
          <mxGeometry x="593.75" y="794.5" width="65.25" height="21" as="geometry" />
        </mxCell>
        <mxCell id="9xKh0rzojqSke07yhVQ2-25" value="" style="shape=cross;whiteSpace=wrap;html=1;strokeColor=#000066;fillColor=#009999;" parent="1" vertex="1">
          <mxGeometry x="21" y="153" width="10" height="10" as="geometry" />
        </mxCell>
        <mxCell id="9xKh0rzojqSke07yhVQ2-26" value="" style="shape=cross;whiteSpace=wrap;html=1;strokeColor=#000066;fillColor=#009999;" parent="1" vertex="1">
          <mxGeometry x="55.75" y="266.5" width="10" height="10" as="geometry" />
        </mxCell>
        <mxCell id="9xKh0rzojqSke07yhVQ2-29" value="" style="shape=cross;whiteSpace=wrap;html=1;strokeColor=#000066;fillColor=#009999;" parent="1" vertex="1">
          <mxGeometry x="659.5" y="722.5" width="10" height="10" as="geometry" />
        </mxCell>
        <mxCell id="uoOMtyOZJ0gnN9VmycOF-1" value="" style="shape=cross;whiteSpace=wrap;html=1;strokeColor=#000066;fillColor=#009999;" parent="1" vertex="1">
          <mxGeometry x="206.75" y="685.5" width="10" height="10" as="geometry" />
        </mxCell>
        <mxCell id="uoOMtyOZJ0gnN9VmycOF-3" value="" style="shape=cross;whiteSpace=wrap;html=1;strokeColor=#000066;fillColor=#009999;" parent="1" vertex="1">
          <mxGeometry x="206.75" y="589.5" width="10" height="10" as="geometry" />
        </mxCell>
        <mxCell id="uoOMtyOZJ0gnN9VmycOF-4" value="" style="shape=cross;whiteSpace=wrap;html=1;strokeColor=#000066;fillColor=#009999;" parent="1" vertex="1">
          <mxGeometry x="194" y="114" width="10" height="10" as="geometry" />
        </mxCell>
        <mxCell id="uoOMtyOZJ0gnN9VmycOF-16" value="&lt;font style=&quot;font-size: 6px;&quot;&gt;Image Processing&lt;/font&gt;" style="html=1;dropTarget=0;whiteSpace=wrap;strokeColor=#0000CC;fillColor=#F2FAFF;" parent="1" vertex="1">
          <mxGeometry x="25" y="76" width="120" height="30" as="geometry" />
        </mxCell>
        <mxCell id="uoOMtyOZJ0gnN9VmycOF-17" value="" style="shape=module;jettyWidth=8;jettyHeight=4;" parent="uoOMtyOZJ0gnN9VmycOF-16" vertex="1">
          <mxGeometry x="1" width="20" height="20" relative="1" as="geometry">
            <mxPoint x="-27" y="7" as="offset" />
          </mxGeometry>
        </mxCell>
        <mxCell id="uoOMtyOZJ0gnN9VmycOF-18" value="" style="shape=providedRequiredInterface;html=1;verticalLabelPosition=bottom;sketch=0;rotation=90;strokeColor=#00FF00;fillColor=#00FF00;" parent="1" vertex="1">
          <mxGeometry x="75.5" y="119" width="20" height="20" as="geometry" />
        </mxCell>
        <mxCell id="uoOMtyOZJ0gnN9VmycOF-19" value="" style="endArrow=none;html=1;rounded=0;exitX=0;exitY=0.5;exitDx=0;exitDy=0;entryX=0.5;entryY=1;entryDx=0;entryDy=0;exitPerimeter=0;strokeColor=#00FF00;fillColor=#00FF00;" parent="1" source="uoOMtyOZJ0gnN9VmycOF-18" target="uoOMtyOZJ0gnN9VmycOF-16" edge="1">
          <mxGeometry width="50" height="50" relative="1" as="geometry">
            <mxPoint x="96" y="220" as="sourcePoint" />
            <mxPoint x="96" y="235" as="targetPoint" />
            <Array as="points" />
          </mxGeometry>
        </mxCell>
        <mxCell id="uoOMtyOZJ0gnN9VmycOF-20" value="" style="endArrow=none;html=1;rounded=0;exitX=1;exitY=0.5;exitDx=0;exitDy=0;entryX=0.5;entryY=0;entryDx=0;entryDy=0;exitPerimeter=0;strokeColor=#00FF00;" parent="1" source="uoOMtyOZJ0gnN9VmycOF-18" target="Du0yvdXYlzZmZNrRCehT-210" edge="1">
          <mxGeometry width="50" height="50" relative="1" as="geometry">
            <mxPoint x="106" y="230" as="sourcePoint" />
            <mxPoint x="106" y="245" as="targetPoint" />
            <Array as="points" />
          </mxGeometry>
        </mxCell>
        <mxCell id="N41uhDiBMSRZs3F5Qhvz-3" value="" style="shape=cross;whiteSpace=wrap;html=1;strokeColor=#000066;fillColor=#009999;" parent="1" vertex="1">
          <mxGeometry x="333.75" y="623.5" width="10" height="10" as="geometry" />
        </mxCell>
        <mxCell id="N41uhDiBMSRZs3F5Qhvz-10" value="&lt;font style=&quot;font-size: 6px;&quot;&gt;Prosseced Data&lt;/font&gt;" style="text;html=1;align=center;verticalAlign=middle;whiteSpace=wrap;rounded=0;" parent="1" vertex="1">
          <mxGeometry x="17" y="110" width="60" height="30" as="geometry" />
        </mxCell>
        <mxCell id="N41uhDiBMSRZs3F5Qhvz-11" value="&lt;font style=&quot;font-size: 6px;&quot;&gt;Dirt info&lt;/font&gt;" style="text;html=1;align=center;verticalAlign=middle;whiteSpace=wrap;rounded=0;" parent="1" vertex="1">
          <mxGeometry x="26" y="220" width="60" height="30" as="geometry" />
        </mxCell>
        <mxCell id="N41uhDiBMSRZs3F5Qhvz-16" value="" style="endArrow=none;html=1;rounded=0;entryX=1;entryY=0.5;entryDx=0;entryDy=0;entryPerimeter=0;exitX=1;exitY=0.5;exitDx=0;exitDy=0;strokeColor=#FF8000;edgeStyle=orthogonalEdgeStyle;" parent="1" source="Du0yvdXYlzZmZNrRCehT-161" target="Du0yvdXYlzZmZNrRCehT-202" edge="1">
          <mxGeometry width="50" height="50" relative="1" as="geometry">
            <mxPoint x="350" y="510" as="sourcePoint" />
            <mxPoint x="400" y="460" as="targetPoint" />
            <Array as="points">
              <mxPoint x="280" y="465" />
              <mxPoint x="280" y="450" />
              <mxPoint x="333" y="450" />
            </Array>
          </mxGeometry>
        </mxCell>
        <mxCell id="N41uhDiBMSRZs3F5Qhvz-17" value="&lt;span style=&quot;font-size: 6px;&quot;&gt;Navigation&lt;/span&gt;" style="html=1;dropTarget=0;whiteSpace=wrap;strokeColor=#0000CC;fillColor=#F2FAFF;" parent="1" vertex="1">
          <mxGeometry x="706.5" y="265.5" width="93.5" height="35" as="geometry" />
        </mxCell>
        <mxCell id="N41uhDiBMSRZs3F5Qhvz-18" value="" style="shape=module;jettyWidth=8;jettyHeight=4;" parent="N41uhDiBMSRZs3F5Qhvz-17" vertex="1">
          <mxGeometry x="1" width="20" height="20" relative="1" as="geometry">
            <mxPoint x="-27" y="7" as="offset" />
          </mxGeometry>
        </mxCell>
        <mxCell id="N41uhDiBMSRZs3F5Qhvz-19" value="" style="shape=providedRequiredInterface;html=1;verticalLabelPosition=bottom;sketch=0;rotation=90;" parent="1" vertex="1">
          <mxGeometry x="733" y="341" width="20" height="20" as="geometry" />
        </mxCell>
        <mxCell id="N41uhDiBMSRZs3F5Qhvz-20" value="" style="endArrow=none;html=1;rounded=0;exitX=0;exitY=0.5;exitDx=0;exitDy=0;entryX=0.25;entryY=1;entryDx=0;entryDy=0;strokeColor=#000000;edgeStyle=orthogonalEdgeStyle;exitPerimeter=0;" parent="1" source="N41uhDiBMSRZs3F5Qhvz-19" target="N41uhDiBMSRZs3F5Qhvz-17" edge="1">
          <mxGeometry width="50" height="50" relative="1" as="geometry">
            <mxPoint x="717" y="256" as="sourcePoint" />
            <mxPoint x="651" y="215" as="targetPoint" />
          </mxGeometry>
        </mxCell>
        <mxCell id="N41uhDiBMSRZs3F5Qhvz-21" value="" style="endArrow=none;html=1;rounded=0;exitX=1;exitY=0.25;exitDx=0;exitDy=0;entryX=1;entryY=0.5;entryDx=0;entryDy=0;entryPerimeter=0;strokeColor=#000000;edgeStyle=orthogonalEdgeStyle;" parent="1" source="Du0yvdXYlzZmZNrRCehT-1" target="N41uhDiBMSRZs3F5Qhvz-19" edge="1">
          <mxGeometry width="50" height="50" relative="1" as="geometry">
            <mxPoint x="717" y="249" as="sourcePoint" />
            <mxPoint x="651" y="215" as="targetPoint" />
          </mxGeometry>
        </mxCell>
        <mxCell id="N41uhDiBMSRZs3F5Qhvz-23" value="" style="shape=providedRequiredInterface;html=1;verticalLabelPosition=bottom;sketch=0;rotation=-90;" parent="1" vertex="1">
          <mxGeometry x="757.5" y="340" width="20" height="20" as="geometry" />
        </mxCell>
        <mxCell id="N41uhDiBMSRZs3F5Qhvz-24" value="" style="endArrow=none;html=1;rounded=0;entryX=0;entryY=0.5;entryDx=0;entryDy=0;entryPerimeter=0;strokeColor=#000000;exitX=1;exitY=0.5;exitDx=0;exitDy=0;edgeStyle=orthogonalEdgeStyle;" parent="1" source="Du0yvdXYlzZmZNrRCehT-1" target="N41uhDiBMSRZs3F5Qhvz-23" edge="1">
          <mxGeometry width="50" height="50" relative="1" as="geometry">
            <mxPoint x="769" y="396" as="sourcePoint" />
            <mxPoint x="874" y="346" as="targetPoint" />
          </mxGeometry>
        </mxCell>
        <mxCell id="N41uhDiBMSRZs3F5Qhvz-25" value="&lt;font style=&quot;font-size: 6px;&quot;&gt;Handling&lt;/font&gt;&lt;div&gt;&lt;font style=&quot;font-size: 6px;&quot;&gt;&amp;nbsp;Navigation&lt;/font&gt;&lt;/div&gt;" style="edgeLabel;html=1;align=center;verticalAlign=middle;resizable=0;points=[];" parent="N41uhDiBMSRZs3F5Qhvz-24" vertex="1" connectable="0">
          <mxGeometry x="0.208" y="1" relative="1" as="geometry">
            <mxPoint x="-24" y="-7" as="offset" />
          </mxGeometry>
        </mxCell>
        <mxCell id="N41uhDiBMSRZs3F5Qhvz-26" value="" style="endArrow=none;html=1;rounded=0;entryX=0.75;entryY=1;entryDx=0;entryDy=0;exitX=1;exitY=0.5;exitDx=0;exitDy=0;exitPerimeter=0;strokeColor=#000000;edgeStyle=orthogonalEdgeStyle;" parent="1" source="N41uhDiBMSRZs3F5Qhvz-23" target="N41uhDiBMSRZs3F5Qhvz-17" edge="1">
          <mxGeometry width="50" height="50" relative="1" as="geometry">
            <mxPoint x="824" y="336" as="sourcePoint" />
            <mxPoint x="754" y="306" as="targetPoint" />
          </mxGeometry>
        </mxCell>
        <mxCell id="N41uhDiBMSRZs3F5Qhvz-27" value="" style="shape=cross;whiteSpace=wrap;html=1;strokeColor=#000066;fillColor=#009999;" parent="1" vertex="1">
          <mxGeometry x="627" y="93" width="10" height="10" as="geometry" />
        </mxCell>
        <mxCell id="9xKh0rzojqSke07yhVQ2-24" value="" style="shape=cross;whiteSpace=wrap;html=1;strokeColor=#000066;fillColor=#009999;" parent="1" vertex="1">
          <mxGeometry x="710" y="270" width="10" height="10" as="geometry" />
        </mxCell>
        <mxCell id="N41uhDiBMSRZs3F5Qhvz-28" value="" style="shape=providedRequiredInterface;html=1;verticalLabelPosition=bottom;sketch=0;rotation=-180;" parent="1" vertex="1">
          <mxGeometry x="184" y="270" width="20" height="20" as="geometry" />
        </mxCell>
        <mxCell id="N41uhDiBMSRZs3F5Qhvz-29" value="" style="endArrow=none;html=1;rounded=0;entryX=0;entryY=0;entryDx=0;entryDy=0;exitX=0;exitY=0.5;exitDx=0;exitDy=0;exitPerimeter=0;strokeColor=#666600;edgeStyle=orthogonalEdgeStyle;" parent="1" source="N41uhDiBMSRZs3F5Qhvz-28" target="Du0yvdXYlzZmZNrRCehT-1" edge="1">
          <mxGeometry width="50" height="50" relative="1" as="geometry">
            <mxPoint x="240" y="330" as="sourcePoint" />
            <mxPoint x="246" y="253" as="targetPoint" />
            <Array as="points">
              <mxPoint x="204" y="340" />
            </Array>
          </mxGeometry>
        </mxCell>
        <mxCell id="N41uhDiBMSRZs3F5Qhvz-31" value="&lt;font style=&quot;font-size: 6px;&quot;&gt;Handling Cleaning Mode&lt;/font&gt;" style="edgeLabel;html=1;align=center;verticalAlign=middle;resizable=0;points=[];" parent="N41uhDiBMSRZs3F5Qhvz-29" vertex="1" connectable="0">
          <mxGeometry x="0.3292" relative="1" as="geometry">
            <mxPoint y="-10" as="offset" />
          </mxGeometry>
        </mxCell>
        <mxCell id="N41uhDiBMSRZs3F5Qhvz-30" value="" style="endArrow=none;html=1;rounded=0;entryX=1;entryY=0.5;entryDx=0;entryDy=0;entryPerimeter=0;strokeColor=#666600;exitX=0;exitY=0;exitDx=150;exitDy=240;exitPerimeter=0;" parent="1" source="Du0yvdXYlzZmZNrRCehT-209" target="N41uhDiBMSRZs3F5Qhvz-28" edge="1">
          <mxGeometry width="50" height="50" relative="1" as="geometry">
            <mxPoint x="170" y="185" as="sourcePoint" />
            <mxPoint x="290" y="280" as="targetPoint" />
          </mxGeometry>
        </mxCell>
        <mxCell id="N41uhDiBMSRZs3F5Qhvz-33" value="" style="shape=providedRequiredInterface;html=1;verticalLabelPosition=bottom;sketch=0;rotation=-90;" parent="1" vertex="1">
          <mxGeometry x="607.75" y="186.5" width="20" height="20" as="geometry" />
        </mxCell>
        <mxCell id="N41uhDiBMSRZs3F5Qhvz-35" value="" style="endArrow=none;html=1;rounded=0;exitX=0.5;exitY=1;exitDx=0;exitDy=0;exitPerimeter=0;strokeColor=#4C0099;edgeStyle=orthogonalEdgeStyle;entryX=1;entryY=0.5;entryDx=0;entryDy=0;entryPerimeter=0;" parent="1" source="Du0yvdXYlzZmZNrRCehT-3" target="N41uhDiBMSRZs3F5Qhvz-33" edge="1">
          <mxGeometry width="50" height="50" relative="1" as="geometry">
            <mxPoint x="650" y="160" as="sourcePoint" />
            <mxPoint x="590" y="195" as="targetPoint" />
            <Array as="points">
              <mxPoint x="499" y="160" />
              <mxPoint x="618" y="160" />
            </Array>
          </mxGeometry>
        </mxCell>
        <mxCell id="N41uhDiBMSRZs3F5Qhvz-37" value="" style="endArrow=none;html=1;rounded=0;exitX=0.709;exitY=-0.004;exitDx=0;exitDy=0;entryX=0;entryY=0.5;entryDx=0;entryDy=0;entryPerimeter=0;strokeColor=#4C0099;edgeStyle=orthogonalEdgeStyle;exitPerimeter=0;" parent="1" source="Du0yvdXYlzZmZNrRCehT-1" target="N41uhDiBMSRZs3F5Qhvz-33" edge="1">
          <mxGeometry width="50" height="50" relative="1" as="geometry">
            <mxPoint x="643" y="350" as="sourcePoint" />
            <mxPoint x="651" y="215" as="targetPoint" />
          </mxGeometry>
        </mxCell>
        <mxCell id="N41uhDiBMSRZs3F5Qhvz-38" value="" style="shape=providedRequiredInterface;html=1;verticalLabelPosition=bottom;sketch=0;rotation=90;" parent="1" vertex="1">
          <mxGeometry x="598" y="511" width="20" height="20" as="geometry" />
        </mxCell>
        <mxCell id="N41uhDiBMSRZs3F5Qhvz-39" value="" style="endArrow=none;html=1;rounded=0;exitX=0;exitY=0.5;exitDx=0;exitDy=0;exitPerimeter=0;entryX=0.75;entryY=1;entryDx=0;entryDy=0;strokeColor=#FF8000;edgeStyle=orthogonalEdgeStyle;" parent="1" source="N41uhDiBMSRZs3F5Qhvz-38" target="Du0yvdXYlzZmZNrRCehT-1" edge="1">
          <mxGeometry width="50" height="50" relative="1" as="geometry">
            <mxPoint x="554" y="513" as="sourcePoint" />
            <mxPoint x="555" y="500" as="targetPoint" />
          </mxGeometry>
        </mxCell>
        <mxCell id="N41uhDiBMSRZs3F5Qhvz-40" value="" style="endArrow=none;html=1;rounded=0;entryX=0;entryY=0;entryDx=355;entryDy=30;exitX=1;exitY=0.5;exitDx=0;exitDy=0;exitPerimeter=0;entryPerimeter=0;strokeColor=#FF8000;edgeStyle=orthogonalEdgeStyle;" parent="1" source="N41uhDiBMSRZs3F5Qhvz-38" target="Du0yvdXYlzZmZNrRCehT-81" edge="1">
          <mxGeometry width="50" height="50" relative="1" as="geometry">
            <mxPoint x="554" y="533" as="sourcePoint" />
            <mxPoint x="547" y="554" as="targetPoint" />
            <Array as="points">
              <mxPoint x="608" y="540" />
              <mxPoint x="537" y="540" />
            </Array>
          </mxGeometry>
        </mxCell>
        <mxCell id="N41uhDiBMSRZs3F5Qhvz-43" value="" style="shape=providedRequiredInterface;html=1;verticalLabelPosition=bottom;sketch=0;rotation=90;" parent="1" vertex="1">
          <mxGeometry x="416" y="281" width="20" height="20" as="geometry" />
        </mxCell>
        <mxCell id="N41uhDiBMSRZs3F5Qhvz-44" value="" style="endArrow=none;html=1;rounded=0;entryX=1;entryY=0.75;entryDx=0;entryDy=0;strokeColor=#000000;exitX=0;exitY=0.5;exitDx=0;exitDy=0;exitPerimeter=0;edgeStyle=orthogonalEdgeStyle;" parent="1" source="N41uhDiBMSRZs3F5Qhvz-43" target="Du0yvdXYlzZmZNrRCehT-39" edge="1">
          <mxGeometry width="50" height="50" relative="1" as="geometry">
            <mxPoint x="468" y="287" as="sourcePoint" />
            <mxPoint x="316" y="239" as="targetPoint" />
          </mxGeometry>
        </mxCell>
        <mxCell id="N41uhDiBMSRZs3F5Qhvz-45" value="" style="endArrow=none;html=1;rounded=0;entryX=1;entryY=0.5;entryDx=0;entryDy=0;strokeColor=#000000;exitX=0.25;exitY=0;exitDx=0;exitDy=0;edgeStyle=orthogonalEdgeStyle;entryPerimeter=0;" parent="1" source="Du0yvdXYlzZmZNrRCehT-1" target="N41uhDiBMSRZs3F5Qhvz-43" edge="1">
          <mxGeometry width="50" height="50" relative="1" as="geometry">
            <mxPoint x="436" y="291" as="sourcePoint" />
            <mxPoint x="316" y="259" as="targetPoint" />
            <Array as="points">
              <mxPoint x="440" y="340" />
              <mxPoint x="440" y="321" />
              <mxPoint x="426" y="321" />
            </Array>
          </mxGeometry>
        </mxCell>
        <mxCell id="N41uhDiBMSRZs3F5Qhvz-46" value="&lt;font style=&quot;font-size: 6px;&quot;&gt;Deactive Cameras&lt;/font&gt;" style="edgeLabel;html=1;align=center;verticalAlign=middle;resizable=0;points=[];" parent="N41uhDiBMSRZs3F5Qhvz-45" vertex="1" connectable="0">
          <mxGeometry x="0.4326" y="2" relative="1" as="geometry">
            <mxPoint x="-24" y="-8" as="offset" />
          </mxGeometry>
        </mxCell>
        <mxCell id="N41uhDiBMSRZs3F5Qhvz-47" value="" style="shape=providedRequiredInterface;html=1;verticalLabelPosition=bottom;sketch=0;rotation=0;" parent="1" vertex="1">
          <mxGeometry x="332" y="405" width="20" height="20" as="geometry" />
        </mxCell>
        <mxCell id="N41uhDiBMSRZs3F5Qhvz-48" value="" style="endArrow=none;html=1;rounded=0;strokeColor=#FF8000;edgeStyle=orthogonalEdgeStyle;entryX=0;entryY=0.5;entryDx=0;entryDy=0;entryPerimeter=0;exitX=1;exitY=0;exitDx=0;exitDy=0;" parent="1" source="Du0yvdXYlzZmZNrRCehT-43" target="N41uhDiBMSRZs3F5Qhvz-47" edge="1">
          <mxGeometry width="50" height="50" relative="1" as="geometry">
            <mxPoint x="170" y="490" as="sourcePoint" />
            <mxPoint x="330" y="440" as="targetPoint" />
            <Array as="points">
              <mxPoint x="220" y="490" />
              <mxPoint x="220" y="415" />
            </Array>
          </mxGeometry>
        </mxCell>
        <mxCell id="N41uhDiBMSRZs3F5Qhvz-49" value="" style="endArrow=none;html=1;rounded=0;exitX=1;exitY=0.25;exitDx=0;exitDy=0;strokeColor=#FF8000;edgeStyle=orthogonalEdgeStyle;entryX=0;entryY=0.5;entryDx=0;entryDy=0;entryPerimeter=0;" parent="1" source="Du0yvdXYlzZmZNrRCehT-161" target="N41uhDiBMSRZs3F5Qhvz-47" edge="1">
          <mxGeometry width="50" height="50" relative="1" as="geometry">
            <mxPoint x="132" y="442" as="sourcePoint" />
            <mxPoint x="332" y="429" as="targetPoint" />
            <Array as="points">
              <mxPoint x="210" y="455" />
              <mxPoint x="210" y="410" />
              <mxPoint x="332" y="410" />
            </Array>
          </mxGeometry>
        </mxCell>
        <mxCell id="N41uhDiBMSRZs3F5Qhvz-50" value="" style="endArrow=none;html=1;rounded=0;exitX=1;exitY=0.5;exitDx=0;exitDy=0;entryX=0;entryY=0.5;entryDx=0;entryDy=0;exitPerimeter=0;strokeColor=#FF8000;" parent="1" source="N41uhDiBMSRZs3F5Qhvz-47" target="Du0yvdXYlzZmZNrRCehT-1" edge="1">
          <mxGeometry width="50" height="50" relative="1" as="geometry">
            <mxPoint x="363" y="462" as="sourcePoint" />
            <mxPoint x="380" y="463" as="targetPoint" />
          </mxGeometry>
        </mxCell>
        <mxCell id="N41uhDiBMSRZs3F5Qhvz-51" value="&lt;font style=&quot;font-size: 6px;&quot;&gt;Deactive Cooking Sensors&lt;/font&gt;" style="edgeLabel;html=1;align=center;verticalAlign=middle;resizable=0;points=[];rotation=0;" parent="N41uhDiBMSRZs3F5Qhvz-50" vertex="1" connectable="0">
          <mxGeometry x="-0.1522" y="-1" relative="1" as="geometry">
            <mxPoint x="-81" y="14" as="offset" />
          </mxGeometry>
        </mxCell>
        <mxCell id="N41uhDiBMSRZs3F5Qhvz-52" value="" style="shape=providedRequiredInterface;html=1;verticalLabelPosition=bottom;sketch=0;rotation=0;" parent="1" vertex="1">
          <mxGeometry x="302" y="371" width="20" height="20" as="geometry" />
        </mxCell>
        <mxCell id="N41uhDiBMSRZs3F5Qhvz-53" value="" style="endArrow=none;html=1;rounded=0;entryX=1;entryY=0.5;entryDx=0;entryDy=0;entryPerimeter=0;strokeColor=#666600;edgeStyle=orthogonalEdgeStyle;exitX=0.002;exitY=0.371;exitDx=0;exitDy=0;exitPerimeter=0;" parent="1" source="Du0yvdXYlzZmZNrRCehT-1" target="N41uhDiBMSRZs3F5Qhvz-52" edge="1">
          <mxGeometry width="50" height="50" relative="1" as="geometry">
            <mxPoint x="380" y="388" as="sourcePoint" />
            <mxPoint x="211" y="355" as="targetPoint" />
            <Array as="points">
              <mxPoint x="371" y="387" />
              <mxPoint x="350" y="387" />
              <mxPoint x="350" y="381" />
            </Array>
          </mxGeometry>
        </mxCell>
        <mxCell id="N41uhDiBMSRZs3F5Qhvz-54" value="" style="endArrow=none;html=1;rounded=0;exitX=1;exitY=0.25;exitDx=0;exitDy=0;entryX=0;entryY=0.5;entryDx=0;entryDy=0;entryPerimeter=0;strokeColor=#666600;edgeStyle=orthogonalEdgeStyle;" parent="1" source="Du0yvdXYlzZmZNrRCehT-260" target="N41uhDiBMSRZs3F5Qhvz-52" edge="1">
          <mxGeometry width="50" height="50" relative="1" as="geometry">
            <mxPoint x="157" y="404" as="sourcePoint" />
            <mxPoint x="336" y="405" as="targetPoint" />
          </mxGeometry>
        </mxCell>
        <mxCell id="N41uhDiBMSRZs3F5Qhvz-55" value="&lt;span style=&quot;color: rgba(0, 0, 0, 0); font-family: monospace; font-size: 0px; text-align: start; background-color: rgb(251, 251, 251);&quot;&gt;%3CmxGraphModel%3E%3Croot%3E%3CmxCell%20id%3D%220%22%2F%3E%3CmxCell%20id%3D%221%22%20parent%3D%220%22%2F%3E%3CmxCell%20id%3D%222%22%20value%3D%22%26lt%3Bfont%20style%3D%26quot%3Bfont-size%3A%206px%3B%26quot%3B%26gt%3BActive%20Tac.%20Sensor%26lt%3B%2Ffont%26gt%3B%22%20style%3D%22edgeLabel%3Bhtml%3D1%3Balign%3Dcenter%3BverticalAlign%3Dmiddle%3Bresizable%3D0%3Bpoints%3D%5B%5D%3B%22%20vertex%3D%221%22%20connectable%3D%220%22%20parent%3D%221%22%3E%3CmxGeometry%20x%3D%22-127.07649533957124%22%20y%3D%22388.2874173774295%22%20as%3D%22geometry%22%2F%3E%3C%2FmxCell%3E%3C%2Froot%3E%3C%2FmxGraphModel%3E&lt;/span&gt;" style="edgeLabel;html=1;align=center;verticalAlign=middle;resizable=0;points=[];" parent="N41uhDiBMSRZs3F5Qhvz-54" vertex="1" connectable="0">
          <mxGeometry x="0.677" relative="1" as="geometry">
            <mxPoint as="offset" />
          </mxGeometry>
        </mxCell>
        <mxCell id="N41uhDiBMSRZs3F5Qhvz-56" value="&lt;span style=&quot;font-size: 6px;&quot;&gt;Deactive Sensor&lt;/span&gt;" style="edgeLabel;html=1;align=center;verticalAlign=middle;resizable=0;points=[];" parent="N41uhDiBMSRZs3F5Qhvz-54" vertex="1" connectable="0">
          <mxGeometry x="0.6143" y="2" relative="1" as="geometry">
            <mxPoint x="-80" y="6" as="offset" />
          </mxGeometry>
        </mxCell>
        <mxCell id="B4CngfvA2Y-CnxM6Ze77-2" value="" style="endArrow=none;html=1;rounded=0;strokeColor=#00FF00;" edge="1" parent="1">
          <mxGeometry width="50" height="50" relative="1" as="geometry">
            <mxPoint x="670" y="810" as="sourcePoint" />
            <mxPoint x="710" y="810" as="targetPoint" />
          </mxGeometry>
        </mxCell>
        <mxCell id="B4CngfvA2Y-CnxM6Ze77-3" value="" style="shape=cross;whiteSpace=wrap;html=1;strokeColor=#000066;fillColor=#009999;" vertex="1" parent="1">
          <mxGeometry x="29" y="81" width="10" height="10" as="geometry" />
        </mxCell>
      </root>
    </mxGraphModel>
  </diagram>
</mxfile>
